<?xml version="1.0" encoding="UTF-8" standalone="no"?>
<!DOCTYPE svg PUBLIC "-//W3C//DTD SVG 1.1//EN"
 "http://www.w3.org/Graphics/SVG/1.1/DTD/svg11.dtd">
<!-- Generated by graphviz version 2.40.1 (20161225.0304)
 -->
<!-- Title: G Pages: 1 -->
<svg width="224pt" height="1634pt"
 viewBox="0.00 0.00 224.40 1634.00" xmlns="http://www.w3.org/2000/svg" xmlns:xlink="http://www.w3.org/1999/xlink">
<g id="graph0" class="graph" transform="scale(1 1) rotate(0) translate(4 1630)">
<title>G</title>
<polygon fill="#ffffff" stroke="transparent" points="-4,4 -4,-1630 220.4004,-1630 220.4004,4 -4,4"/>
<!-- 475 -->
<g id="node1" class="node">
<title>475</title>
<polygon fill="none" stroke="#000000" points="0,-828.5 0,-1004.5 216.4004,-1004.5 216.4004,-828.5 0,-828.5"/>
<text text-anchor="middle" x="57.4771" y="-989.3" font-family="Times,serif" font-size="14.00" fill="#000000">buffer</text>
<polyline fill="none" stroke="#000000" points="114.9541,-982.5 114.9541,-1004.5 "/>
<text text-anchor="middle" x="165.6748" y="-989.3" font-family="Times,serif" font-size="14.00" fill="#000000">full</text>
<polyline fill="none" stroke="#000000" points="0,-982.5 216.4004,-982.5 "/>
<text text-anchor="middle" x="28.2139" y="-934.3" font-family="Times,serif" font-size="14.00" fill="#000000">threads</text>
<polyline fill="none" stroke="#000000" points="56.4277,-894.5 56.4277,-982.5 "/>
<text text-anchor="middle" x="69.8726" y="-967.3" font-family="Times,serif" font-size="14.00" fill="#000000">id</text>
<polyline fill="none" stroke="#000000" points="56.4277,-960.5 83.3174,-960.5 "/>
<text text-anchor="middle" x="69.8726" y="-945.3" font-family="Times,serif" font-size="14.00" fill="#000000">0</text>
<polyline fill="none" stroke="#000000" points="56.4277,-938.5 83.3174,-938.5 "/>
<text text-anchor="middle" x="69.8726" y="-923.3" font-family="Times,serif" font-size="14.00" fill="#000000">1</text>
<polyline fill="none" stroke="#000000" points="56.4277,-916.5 83.3174,-916.5 "/>
<text text-anchor="middle" x="69.8726" y="-901.3" font-family="Times,serif" font-size="14.00" fill="#000000">2</text>
<polyline fill="none" stroke="#000000" points="83.3174,-894.5 83.3174,-982.5 "/>
<text text-anchor="middle" x="118.5313" y="-967.3" font-family="Times,serif" font-size="14.00" fill="#000000">kind</text>
<polyline fill="none" stroke="#000000" points="83.3174,-960.5 153.7451,-960.5 "/>
<text text-anchor="middle" x="118.5313" y="-945.3" font-family="Times,serif" font-size="14.00" fill="#000000">consumer</text>
<polyline fill="none" stroke="#000000" points="83.3174,-938.5 153.7451,-938.5 "/>
<text text-anchor="middle" x="118.5313" y="-923.3" font-family="Times,serif" font-size="14.00" fill="#000000">consumer</text>
<polyline fill="none" stroke="#000000" points="83.3174,-916.5 153.7451,-916.5 "/>
<text text-anchor="middle" x="118.5313" y="-901.3" font-family="Times,serif" font-size="14.00" fill="#000000">producer</text>
<polyline fill="none" stroke="#000000" points="153.7451,-894.5 153.7451,-982.5 "/>
<text text-anchor="middle" x="185.0728" y="-967.3" font-family="Times,serif" font-size="14.00" fill="#000000">state</text>
<polyline fill="none" stroke="#000000" points="153.7451,-960.5 216.4004,-960.5 "/>
<text text-anchor="middle" x="185.0728" y="-945.3" font-family="Times,serif" font-size="14.00" fill="#000000">sleeping</text>
<polyline fill="none" stroke="#000000" points="153.7451,-938.5 216.4004,-938.5 "/>
<text text-anchor="middle" x="185.0728" y="-923.3" font-family="Times,serif" font-size="14.00" fill="#000000">awake</text>
<polyline fill="none" stroke="#000000" points="153.7451,-916.5 216.4004,-916.5 "/>
<text text-anchor="middle" x="185.0728" y="-901.3" font-family="Times,serif" font-size="14.00" fill="#000000">awake</text>
<polyline fill="none" stroke="#000000" points="0,-894.5 216.4004,-894.5 "/>
<text text-anchor="middle" x="64.7656" y="-879.3" font-family="Times,serif" font-size="14.00" fill="#000000">occupied</text>
<polyline fill="none" stroke="#000000" points="129.5313,-872.5 129.5313,-894.5 "/>
<text text-anchor="middle" x="172.5313" y="-879.3" font-family="Times,serif" font-size="14.00" fill="#000000">1</text>
<polyline fill="none" stroke="#000000" points="0,-872.5 216.4004,-872.5 "/>
<text text-anchor="middle" x="60.3276" y="-857.3" font-family="Times,serif" font-size="14.00" fill="#000000">put&#45;at</text>
<polyline fill="none" stroke="#000000" points="120.6553,-850.5 120.6553,-872.5 "/>
<text text-anchor="middle" x="168.1553" y="-857.3" font-family="Times,serif" font-size="14.00" fill="#000000">1</text>
<polyline fill="none" stroke="#000000" points="0,-850.5 216.4004,-850.5 "/>
<text text-anchor="middle" x="61.5415" y="-835.3" font-family="Times,serif" font-size="14.00" fill="#000000">take&#45;at</text>
<polyline fill="none" stroke="#000000" points="123.083,-828.5 123.083,-850.5 "/>
<text text-anchor="middle" x="169.583" y="-835.3" font-family="Times,serif" font-size="14.00" fill="#000000">0</text>
</g>
<!-- 1619 -->
<g id="node7" class="node">
<title>1619</title>
<polygon fill="none" stroke="#000000" points="0,-621.5 0,-797.5 216.4004,-797.5 216.4004,-621.5 0,-621.5"/>
<text text-anchor="middle" x="57.4771" y="-782.3" font-family="Times,serif" font-size="14.00" fill="#000000">buffer</text>
<polyline fill="none" stroke="#000000" points="114.9541,-775.5 114.9541,-797.5 "/>
<text text-anchor="middle" x="165.6748" y="-782.3" font-family="Times,serif" font-size="14.00" fill="#000000">full</text>
<polyline fill="none" stroke="#000000" points="0,-775.5 216.4004,-775.5 "/>
<text text-anchor="middle" x="28.2139" y="-727.3" font-family="Times,serif" font-size="14.00" fill="#000000">threads</text>
<polyline fill="none" stroke="#000000" points="56.4277,-687.5 56.4277,-775.5 "/>
<text text-anchor="middle" x="69.8726" y="-760.3" font-family="Times,serif" font-size="14.00" fill="#000000">id</text>
<polyline fill="none" stroke="#000000" points="56.4277,-753.5 83.3174,-753.5 "/>
<text text-anchor="middle" x="69.8726" y="-738.3" font-family="Times,serif" font-size="14.00" fill="#000000">0</text>
<polyline fill="none" stroke="#000000" points="56.4277,-731.5 83.3174,-731.5 "/>
<text text-anchor="middle" x="69.8726" y="-716.3" font-family="Times,serif" font-size="14.00" fill="#000000">1</text>
<polyline fill="none" stroke="#000000" points="56.4277,-709.5 83.3174,-709.5 "/>
<text text-anchor="middle" x="69.8726" y="-694.3" font-family="Times,serif" font-size="14.00" fill="#000000">2</text>
<polyline fill="none" stroke="#000000" points="83.3174,-687.5 83.3174,-775.5 "/>
<text text-anchor="middle" x="118.5313" y="-760.3" font-family="Times,serif" font-size="14.00" fill="#000000">kind</text>
<polyline fill="none" stroke="#000000" points="83.3174,-753.5 153.7451,-753.5 "/>
<text text-anchor="middle" x="118.5313" y="-738.3" font-family="Times,serif" font-size="14.00" fill="#000000">consumer</text>
<polyline fill="none" stroke="#000000" points="83.3174,-731.5 153.7451,-731.5 "/>
<text text-anchor="middle" x="118.5313" y="-716.3" font-family="Times,serif" font-size="14.00" fill="#000000">consumer</text>
<polyline fill="none" stroke="#000000" points="83.3174,-709.5 153.7451,-709.5 "/>
<text text-anchor="middle" x="118.5313" y="-694.3" font-family="Times,serif" font-size="14.00" fill="#000000">producer</text>
<polyline fill="none" stroke="#000000" points="153.7451,-687.5 153.7451,-775.5 "/>
<text text-anchor="middle" x="185.0728" y="-760.3" font-family="Times,serif" font-size="14.00" fill="#000000">state</text>
<polyline fill="none" stroke="#000000" points="153.7451,-753.5 216.4004,-753.5 "/>
<text text-anchor="middle" x="185.0728" y="-738.3" font-family="Times,serif" font-size="14.00" fill="#000000">sleeping</text>
<polyline fill="none" stroke="#000000" points="153.7451,-731.5 216.4004,-731.5 "/>
<text text-anchor="middle" x="185.0728" y="-716.3" font-family="Times,serif" font-size="14.00" fill="#000000">awake</text>
<polyline fill="none" stroke="#000000" points="153.7451,-709.5 216.4004,-709.5 "/>
<text text-anchor="middle" x="185.0728" y="-694.3" font-family="Times,serif" font-size="14.00" fill="#000000">sleeping</text>
<polyline fill="none" stroke="#000000" points="0,-687.5 216.4004,-687.5 "/>
<text text-anchor="middle" x="64.7656" y="-672.3" font-family="Times,serif" font-size="14.00" fill="#000000">occupied</text>
<polyline fill="none" stroke="#000000" points="129.5313,-665.5 129.5313,-687.5 "/>
<text text-anchor="middle" x="172.5313" y="-672.3" font-family="Times,serif" font-size="14.00" fill="#000000">1</text>
<polyline fill="none" stroke="#000000" points="0,-665.5 216.4004,-665.5 "/>
<text text-anchor="middle" x="60.3276" y="-650.3" font-family="Times,serif" font-size="14.00" fill="#000000">put&#45;at</text>
<polyline fill="none" stroke="#000000" points="120.6553,-643.5 120.6553,-665.5 "/>
<text text-anchor="middle" x="168.1553" y="-650.3" font-family="Times,serif" font-size="14.00" fill="#000000">1</text>
<polyline fill="none" stroke="#000000" points="0,-643.5 216.4004,-643.5 "/>
<text text-anchor="middle" x="61.5415" y="-628.3" font-family="Times,serif" font-size="14.00" fill="#000000">take&#45;at</text>
<polyline fill="none" stroke="#000000" points="123.083,-621.5 123.083,-643.5 "/>
<text text-anchor="middle" x="169.583" y="-628.3" font-family="Times,serif" font-size="14.00" fill="#000000">0</text>
</g>
<!-- 475&#45;&gt;1619 -->
<g id="edge1" class="edge">
<title>475&#45;&gt;1619</title>
<path fill="none" stroke="#000000" d="M108.2002,-828.4132C108.2002,-821.5375 108.2002,-814.5689 108.2002,-807.6326"/>
<polygon fill="#000000" stroke="#000000" points="111.7003,-807.5076 108.2002,-797.5076 104.7003,-807.5077 111.7003,-807.5076"/>
<text text-anchor="middle" x="140.1445" y="-808.8" font-family="Times,serif" font-size="14.00" fill="#000000">2&#45;&gt;notify:0</text>
</g>
<!-- 1617 -->
<g id="node2" class="node">
<title>1617</title>
<polygon fill="none" stroke="#000000" points="0,-207.5 0,-383.5 216.4004,-383.5 216.4004,-207.5 0,-207.5"/>
<text text-anchor="middle" x="57.4771" y="-368.3" font-family="Times,serif" font-size="14.00" fill="#000000">buffer</text>
<polyline fill="none" stroke="#000000" points="114.9541,-361.5 114.9541,-383.5 "/>
<text text-anchor="middle" x="165.6748" y="-368.3" font-family="Times,serif" font-size="14.00" fill="#000000">full</text>
<polyline fill="none" stroke="#000000" points="0,-361.5 216.4004,-361.5 "/>
<text text-anchor="middle" x="28.2139" y="-313.3" font-family="Times,serif" font-size="14.00" fill="#000000">threads</text>
<polyline fill="none" stroke="#000000" points="56.4277,-273.5 56.4277,-361.5 "/>
<text text-anchor="middle" x="69.8726" y="-346.3" font-family="Times,serif" font-size="14.00" fill="#000000">id</text>
<polyline fill="none" stroke="#000000" points="56.4277,-339.5 83.3174,-339.5 "/>
<text text-anchor="middle" x="69.8726" y="-324.3" font-family="Times,serif" font-size="14.00" fill="#000000">0</text>
<polyline fill="none" stroke="#000000" points="56.4277,-317.5 83.3174,-317.5 "/>
<text text-anchor="middle" x="69.8726" y="-302.3" font-family="Times,serif" font-size="14.00" fill="#000000">1</text>
<polyline fill="none" stroke="#000000" points="56.4277,-295.5 83.3174,-295.5 "/>
<text text-anchor="middle" x="69.8726" y="-280.3" font-family="Times,serif" font-size="14.00" fill="#000000">2</text>
<polyline fill="none" stroke="#000000" points="83.3174,-273.5 83.3174,-361.5 "/>
<text text-anchor="middle" x="118.5313" y="-346.3" font-family="Times,serif" font-size="14.00" fill="#000000">kind</text>
<polyline fill="none" stroke="#000000" points="83.3174,-339.5 153.7451,-339.5 "/>
<text text-anchor="middle" x="118.5313" y="-324.3" font-family="Times,serif" font-size="14.00" fill="#000000">consumer</text>
<polyline fill="none" stroke="#000000" points="83.3174,-317.5 153.7451,-317.5 "/>
<text text-anchor="middle" x="118.5313" y="-302.3" font-family="Times,serif" font-size="14.00" fill="#000000">consumer</text>
<polyline fill="none" stroke="#000000" points="83.3174,-295.5 153.7451,-295.5 "/>
<text text-anchor="middle" x="118.5313" y="-280.3" font-family="Times,serif" font-size="14.00" fill="#000000">producer</text>
<polyline fill="none" stroke="#000000" points="153.7451,-273.5 153.7451,-361.5 "/>
<text text-anchor="middle" x="185.0728" y="-346.3" font-family="Times,serif" font-size="14.00" fill="#000000">state</text>
<polyline fill="none" stroke="#000000" points="153.7451,-339.5 216.4004,-339.5 "/>
<text text-anchor="middle" x="185.0728" y="-324.3" font-family="Times,serif" font-size="14.00" fill="#000000">awake</text>
<polyline fill="none" stroke="#000000" points="153.7451,-317.5 216.4004,-317.5 "/>
<text text-anchor="middle" x="185.0728" y="-302.3" font-family="Times,serif" font-size="14.00" fill="#000000">sleeping</text>
<polyline fill="none" stroke="#000000" points="153.7451,-295.5 216.4004,-295.5 "/>
<text text-anchor="middle" x="185.0728" y="-280.3" font-family="Times,serif" font-size="14.00" fill="#000000">sleeping</text>
<polyline fill="none" stroke="#000000" points="0,-273.5 216.4004,-273.5 "/>
<text text-anchor="middle" x="64.7656" y="-258.3" font-family="Times,serif" font-size="14.00" fill="#000000">occupied</text>
<polyline fill="none" stroke="#000000" points="129.5313,-251.5 129.5313,-273.5 "/>
<text text-anchor="middle" x="172.5313" y="-258.3" font-family="Times,serif" font-size="14.00" fill="#000000">0</text>
<polyline fill="none" stroke="#000000" points="0,-251.5 216.4004,-251.5 "/>
<text text-anchor="middle" x="60.3276" y="-236.3" font-family="Times,serif" font-size="14.00" fill="#000000">put&#45;at</text>
<polyline fill="none" stroke="#000000" points="120.6553,-229.5 120.6553,-251.5 "/>
<text text-anchor="middle" x="168.1553" y="-236.3" font-family="Times,serif" font-size="14.00" fill="#000000">1</text>
<polyline fill="none" stroke="#000000" points="0,-229.5 216.4004,-229.5 "/>
<text text-anchor="middle" x="61.5415" y="-214.3" font-family="Times,serif" font-size="14.00" fill="#000000">take&#45;at</text>
<polyline fill="none" stroke="#000000" points="123.083,-207.5 123.083,-229.5 "/>
<text text-anchor="middle" x="169.583" y="-214.3" font-family="Times,serif" font-size="14.00" fill="#000000">1</text>
</g>
<!-- 1616 -->
<g id="node5" class="node">
<title>1616</title>
<polygon fill="none" stroke="#000000" points="0,-.5 0,-176.5 216.4004,-176.5 216.4004,-.5 0,-.5"/>
<text text-anchor="middle" x="57.4771" y="-161.3" font-family="Times,serif" font-size="14.00" fill="#000000">buffer</text>
<polyline fill="none" stroke="#000000" points="114.9541,-154.5 114.9541,-176.5 "/>
<text text-anchor="middle" x="165.6748" y="-161.3" font-family="Times,serif" font-size="14.00" fill="#000000">full</text>
<polyline fill="none" stroke="#000000" points="0,-154.5 216.4004,-154.5 "/>
<text text-anchor="middle" x="28.2139" y="-106.3" font-family="Times,serif" font-size="14.00" fill="#000000">threads</text>
<polyline fill="none" stroke="#000000" points="56.4277,-66.5 56.4277,-154.5 "/>
<text text-anchor="middle" x="69.8726" y="-139.3" font-family="Times,serif" font-size="14.00" fill="#000000">id</text>
<polyline fill="none" stroke="#000000" points="56.4277,-132.5 83.3174,-132.5 "/>
<text text-anchor="middle" x="69.8726" y="-117.3" font-family="Times,serif" font-size="14.00" fill="#000000">0</text>
<polyline fill="none" stroke="#000000" points="56.4277,-110.5 83.3174,-110.5 "/>
<text text-anchor="middle" x="69.8726" y="-95.3" font-family="Times,serif" font-size="14.00" fill="#000000">1</text>
<polyline fill="none" stroke="#000000" points="56.4277,-88.5 83.3174,-88.5 "/>
<text text-anchor="middle" x="69.8726" y="-73.3" font-family="Times,serif" font-size="14.00" fill="#000000">2</text>
<polyline fill="none" stroke="#000000" points="83.3174,-66.5 83.3174,-154.5 "/>
<text text-anchor="middle" x="118.5313" y="-139.3" font-family="Times,serif" font-size="14.00" fill="#000000">kind</text>
<polyline fill="none" stroke="#000000" points="83.3174,-132.5 153.7451,-132.5 "/>
<text text-anchor="middle" x="118.5313" y="-117.3" font-family="Times,serif" font-size="14.00" fill="#000000">consumer</text>
<polyline fill="none" stroke="#000000" points="83.3174,-110.5 153.7451,-110.5 "/>
<text text-anchor="middle" x="118.5313" y="-95.3" font-family="Times,serif" font-size="14.00" fill="#000000">consumer</text>
<polyline fill="none" stroke="#000000" points="83.3174,-88.5 153.7451,-88.5 "/>
<text text-anchor="middle" x="118.5313" y="-73.3" font-family="Times,serif" font-size="14.00" fill="#000000">producer</text>
<polyline fill="none" stroke="#000000" points="153.7451,-66.5 153.7451,-154.5 "/>
<text text-anchor="middle" x="185.0728" y="-139.3" font-family="Times,serif" font-size="14.00" fill="#000000">state</text>
<polyline fill="none" stroke="#000000" points="153.7451,-132.5 216.4004,-132.5 "/>
<text text-anchor="middle" x="185.0728" y="-117.3" font-family="Times,serif" font-size="14.00" fill="#000000">sleeping</text>
<polyline fill="none" stroke="#000000" points="153.7451,-110.5 216.4004,-110.5 "/>
<text text-anchor="middle" x="185.0728" y="-95.3" font-family="Times,serif" font-size="14.00" fill="#000000">sleeping</text>
<polyline fill="none" stroke="#000000" points="153.7451,-88.5 216.4004,-88.5 "/>
<text text-anchor="middle" x="185.0728" y="-73.3" font-family="Times,serif" font-size="14.00" fill="#000000">sleeping</text>
<polyline fill="none" stroke="#000000" points="0,-66.5 216.4004,-66.5 "/>
<text text-anchor="middle" x="64.7656" y="-51.3" font-family="Times,serif" font-size="14.00" fill="#000000">occupied</text>
<polyline fill="none" stroke="#000000" points="129.5313,-44.5 129.5313,-66.5 "/>
<text text-anchor="middle" x="172.5313" y="-51.3" font-family="Times,serif" font-size="14.00" fill="#000000">0</text>
<polyline fill="none" stroke="#000000" points="0,-44.5 216.4004,-44.5 "/>
<text text-anchor="middle" x="60.3276" y="-29.3" font-family="Times,serif" font-size="14.00" fill="#000000">put&#45;at</text>
<polyline fill="none" stroke="#000000" points="120.6553,-22.5 120.6553,-44.5 "/>
<text text-anchor="middle" x="168.1553" y="-29.3" font-family="Times,serif" font-size="14.00" fill="#000000">1</text>
<polyline fill="none" stroke="#000000" points="0,-22.5 216.4004,-22.5 "/>
<text text-anchor="middle" x="61.5415" y="-7.3" font-family="Times,serif" font-size="14.00" fill="#000000">take&#45;at</text>
<polyline fill="none" stroke="#000000" points="123.083,-.5 123.083,-22.5 "/>
<text text-anchor="middle" x="169.583" y="-7.3" font-family="Times,serif" font-size="14.00" fill="#000000">1</text>
</g>
<!-- 1617&#45;&gt;1616 -->
<g id="edge2" class="edge">
<title>1617&#45;&gt;1616</title>
<path fill="none" stroke="#000000" d="M108.2002,-207.4132C108.2002,-200.5375 108.2002,-193.5689 108.2002,-186.6326"/>
<polygon fill="#000000" stroke="#000000" points="111.7003,-186.5076 108.2002,-176.5076 104.7003,-186.5077 111.7003,-186.5076"/>
<text text-anchor="middle" x="140.1445" y="-187.8" font-family="Times,serif" font-size="14.00" fill="#000000">0&#45;&gt;notify:1</text>
</g>
<!-- 21 -->
<g id="node3" class="node">
<title>21</title>
<polygon fill="none" stroke="#000000" points="0,-1035.5 0,-1211.5 216.4004,-1211.5 216.4004,-1035.5 0,-1035.5"/>
<text text-anchor="middle" x="53.4771" y="-1196.3" font-family="Times,serif" font-size="14.00" fill="#000000">buffer</text>
<polyline fill="none" stroke="#000000" points="106.9541,-1189.5 106.9541,-1211.5 "/>
<text text-anchor="middle" x="161.4507" y="-1196.3" font-family="Times,serif" font-size="14.00" fill="#000000">empty</text>
<polyline fill="none" stroke="#000000" points="0,-1189.5 216.4004,-1189.5 "/>
<text text-anchor="middle" x="28.2139" y="-1141.3" font-family="Times,serif" font-size="14.00" fill="#000000">threads</text>
<polyline fill="none" stroke="#000000" points="56.4277,-1101.5 56.4277,-1189.5 "/>
<text text-anchor="middle" x="69.8726" y="-1174.3" font-family="Times,serif" font-size="14.00" fill="#000000">id</text>
<polyline fill="none" stroke="#000000" points="56.4277,-1167.5 83.3174,-1167.5 "/>
<text text-anchor="middle" x="69.8726" y="-1152.3" font-family="Times,serif" font-size="14.00" fill="#000000">0</text>
<polyline fill="none" stroke="#000000" points="56.4277,-1145.5 83.3174,-1145.5 "/>
<text text-anchor="middle" x="69.8726" y="-1130.3" font-family="Times,serif" font-size="14.00" fill="#000000">1</text>
<polyline fill="none" stroke="#000000" points="56.4277,-1123.5 83.3174,-1123.5 "/>
<text text-anchor="middle" x="69.8726" y="-1108.3" font-family="Times,serif" font-size="14.00" fill="#000000">2</text>
<polyline fill="none" stroke="#000000" points="83.3174,-1101.5 83.3174,-1189.5 "/>
<text text-anchor="middle" x="118.5313" y="-1174.3" font-family="Times,serif" font-size="14.00" fill="#000000">kind</text>
<polyline fill="none" stroke="#000000" points="83.3174,-1167.5 153.7451,-1167.5 "/>
<text text-anchor="middle" x="118.5313" y="-1152.3" font-family="Times,serif" font-size="14.00" fill="#000000">consumer</text>
<polyline fill="none" stroke="#000000" points="83.3174,-1145.5 153.7451,-1145.5 "/>
<text text-anchor="middle" x="118.5313" y="-1130.3" font-family="Times,serif" font-size="14.00" fill="#000000">consumer</text>
<polyline fill="none" stroke="#000000" points="83.3174,-1123.5 153.7451,-1123.5 "/>
<text text-anchor="middle" x="118.5313" y="-1108.3" font-family="Times,serif" font-size="14.00" fill="#000000">producer</text>
<polyline fill="none" stroke="#000000" points="153.7451,-1101.5 153.7451,-1189.5 "/>
<text text-anchor="middle" x="185.0728" y="-1174.3" font-family="Times,serif" font-size="14.00" fill="#000000">state</text>
<polyline fill="none" stroke="#000000" points="153.7451,-1167.5 216.4004,-1167.5 "/>
<text text-anchor="middle" x="185.0728" y="-1152.3" font-family="Times,serif" font-size="14.00" fill="#000000">sleeping</text>
<polyline fill="none" stroke="#000000" points="153.7451,-1145.5 216.4004,-1145.5 "/>
<text text-anchor="middle" x="185.0728" y="-1130.3" font-family="Times,serif" font-size="14.00" fill="#000000">sleeping</text>
<polyline fill="none" stroke="#000000" points="153.7451,-1123.5 216.4004,-1123.5 "/>
<text text-anchor="middle" x="185.0728" y="-1108.3" font-family="Times,serif" font-size="14.00" fill="#000000">awake</text>
<polyline fill="none" stroke="#000000" points="0,-1101.5 216.4004,-1101.5 "/>
<text text-anchor="middle" x="64.7656" y="-1086.3" font-family="Times,serif" font-size="14.00" fill="#000000">occupied</text>
<polyline fill="none" stroke="#000000" points="129.5313,-1079.5 129.5313,-1101.5 "/>
<text text-anchor="middle" x="172.5313" y="-1086.3" font-family="Times,serif" font-size="14.00" fill="#000000">0</text>
<polyline fill="none" stroke="#000000" points="0,-1079.5 216.4004,-1079.5 "/>
<text text-anchor="middle" x="60.3276" y="-1064.3" font-family="Times,serif" font-size="14.00" fill="#000000">put&#45;at</text>
<polyline fill="none" stroke="#000000" points="120.6553,-1057.5 120.6553,-1079.5 "/>
<text text-anchor="middle" x="168.1553" y="-1064.3" font-family="Times,serif" font-size="14.00" fill="#000000">0</text>
<polyline fill="none" stroke="#000000" points="0,-1057.5 216.4004,-1057.5 "/>
<text text-anchor="middle" x="61.5415" y="-1042.3" font-family="Times,serif" font-size="14.00" fill="#000000">take&#45;at</text>
<polyline fill="none" stroke="#000000" points="123.083,-1035.5 123.083,-1057.5 "/>
<text text-anchor="middle" x="169.583" y="-1042.3" font-family="Times,serif" font-size="14.00" fill="#000000">0</text>
</g>
<!-- 21&#45;&gt;475 -->
<g id="edge3" class="edge">
<title>21&#45;&gt;475</title>
<path fill="none" stroke="#000000" d="M108.2002,-1035.4132C108.2002,-1028.5375 108.2002,-1021.5689 108.2002,-1014.6326"/>
<polygon fill="#000000" stroke="#000000" points="111.7003,-1014.5076 108.2002,-1004.5076 104.7003,-1014.5077 111.7003,-1014.5076"/>
<text text-anchor="middle" x="140.1445" y="-1015.8" font-family="Times,serif" font-size="14.00" fill="#000000">2&#45;&gt;notify:1</text>
</g>
<!-- 22 -->
<g id="node4" class="node">
<title>22</title>
<polygon fill="none" stroke="#000000" points="0,-1242.5 0,-1418.5 216.4004,-1418.5 216.4004,-1242.5 0,-1242.5"/>
<text text-anchor="middle" x="53.4771" y="-1403.3" font-family="Times,serif" font-size="14.00" fill="#000000">buffer</text>
<polyline fill="none" stroke="#000000" points="106.9541,-1396.5 106.9541,-1418.5 "/>
<text text-anchor="middle" x="161.4507" y="-1403.3" font-family="Times,serif" font-size="14.00" fill="#000000">empty</text>
<polyline fill="none" stroke="#000000" points="0,-1396.5 216.4004,-1396.5 "/>
<text text-anchor="middle" x="28.2139" y="-1348.3" font-family="Times,serif" font-size="14.00" fill="#000000">threads</text>
<polyline fill="none" stroke="#000000" points="56.4277,-1308.5 56.4277,-1396.5 "/>
<text text-anchor="middle" x="69.8726" y="-1381.3" font-family="Times,serif" font-size="14.00" fill="#000000">id</text>
<polyline fill="none" stroke="#000000" points="56.4277,-1374.5 83.3174,-1374.5 "/>
<text text-anchor="middle" x="69.8726" y="-1359.3" font-family="Times,serif" font-size="14.00" fill="#000000">0</text>
<polyline fill="none" stroke="#000000" points="56.4277,-1352.5 83.3174,-1352.5 "/>
<text text-anchor="middle" x="69.8726" y="-1337.3" font-family="Times,serif" font-size="14.00" fill="#000000">1</text>
<polyline fill="none" stroke="#000000" points="56.4277,-1330.5 83.3174,-1330.5 "/>
<text text-anchor="middle" x="69.8726" y="-1315.3" font-family="Times,serif" font-size="14.00" fill="#000000">2</text>
<polyline fill="none" stroke="#000000" points="83.3174,-1308.5 83.3174,-1396.5 "/>
<text text-anchor="middle" x="118.5313" y="-1381.3" font-family="Times,serif" font-size="14.00" fill="#000000">kind</text>
<polyline fill="none" stroke="#000000" points="83.3174,-1374.5 153.7451,-1374.5 "/>
<text text-anchor="middle" x="118.5313" y="-1359.3" font-family="Times,serif" font-size="14.00" fill="#000000">consumer</text>
<polyline fill="none" stroke="#000000" points="83.3174,-1352.5 153.7451,-1352.5 "/>
<text text-anchor="middle" x="118.5313" y="-1337.3" font-family="Times,serif" font-size="14.00" fill="#000000">consumer</text>
<polyline fill="none" stroke="#000000" points="83.3174,-1330.5 153.7451,-1330.5 "/>
<text text-anchor="middle" x="118.5313" y="-1315.3" font-family="Times,serif" font-size="14.00" fill="#000000">producer</text>
<polyline fill="none" stroke="#000000" points="153.7451,-1308.5 153.7451,-1396.5 "/>
<text text-anchor="middle" x="185.0728" y="-1381.3" font-family="Times,serif" font-size="14.00" fill="#000000">state</text>
<polyline fill="none" stroke="#000000" points="153.7451,-1374.5 216.4004,-1374.5 "/>
<text text-anchor="middle" x="185.0728" y="-1359.3" font-family="Times,serif" font-size="14.00" fill="#000000">awake</text>
<polyline fill="none" stroke="#000000" points="153.7451,-1352.5 216.4004,-1352.5 "/>
<text text-anchor="middle" x="185.0728" y="-1337.3" font-family="Times,serif" font-size="14.00" fill="#000000">sleeping</text>
<polyline fill="none" stroke="#000000" points="153.7451,-1330.5 216.4004,-1330.5 "/>
<text text-anchor="middle" x="185.0728" y="-1315.3" font-family="Times,serif" font-size="14.00" fill="#000000">awake</text>
<polyline fill="none" stroke="#000000" points="0,-1308.5 216.4004,-1308.5 "/>
<text text-anchor="middle" x="64.7656" y="-1293.3" font-family="Times,serif" font-size="14.00" fill="#000000">occupied</text>
<polyline fill="none" stroke="#000000" points="129.5313,-1286.5 129.5313,-1308.5 "/>
<text text-anchor="middle" x="172.5313" y="-1293.3" font-family="Times,serif" font-size="14.00" fill="#000000">0</text>
<polyline fill="none" stroke="#000000" points="0,-1286.5 216.4004,-1286.5 "/>
<text text-anchor="middle" x="60.3276" y="-1271.3" font-family="Times,serif" font-size="14.00" fill="#000000">put&#45;at</text>
<polyline fill="none" stroke="#000000" points="120.6553,-1264.5 120.6553,-1286.5 "/>
<text text-anchor="middle" x="168.1553" y="-1271.3" font-family="Times,serif" font-size="14.00" fill="#000000">0</text>
<polyline fill="none" stroke="#000000" points="0,-1264.5 216.4004,-1264.5 "/>
<text text-anchor="middle" x="61.5415" y="-1249.3" font-family="Times,serif" font-size="14.00" fill="#000000">take&#45;at</text>
<polyline fill="none" stroke="#000000" points="123.083,-1242.5 123.083,-1264.5 "/>
<text text-anchor="middle" x="169.583" y="-1249.3" font-family="Times,serif" font-size="14.00" fill="#000000">0</text>
</g>
<!-- 22&#45;&gt;21 -->
<g id="edge4" class="edge">
<title>22&#45;&gt;21</title>
<path fill="none" stroke="#000000" d="M108.2002,-1242.4132C108.2002,-1235.5375 108.2002,-1228.5689 108.2002,-1221.6326"/>
<polygon fill="#000000" stroke="#000000" points="111.7003,-1221.5076 108.2002,-1211.5076 104.7003,-1221.5077 111.7003,-1221.5076"/>
<text text-anchor="middle" x="111.7002" y="-1222.8" font-family="Times,serif" font-size="14.00" fill="#000000">0</text>
</g>
<!-- start -->
<g id="node6" class="node">
<title>start</title>
<polygon fill="none" stroke="#000000" points="5.4517,-1449.5 5.4517,-1625.5 210.9487,-1625.5 210.9487,-1449.5 5.4517,-1449.5"/>
<text text-anchor="middle" x="56.4287" y="-1610.3" font-family="Times,serif" font-size="14.00" fill="#000000">buffer</text>
<polyline fill="none" stroke="#000000" points="107.4058,-1603.5 107.4058,-1625.5 "/>
<text text-anchor="middle" x="158.9023" y="-1610.3" font-family="Times,serif" font-size="14.00" fill="#000000">empty</text>
<polyline fill="none" stroke="#000000" points="5.4517,-1603.5 210.9487,-1603.5 "/>
<text text-anchor="middle" x="33.6655" y="-1555.3" font-family="Times,serif" font-size="14.00" fill="#000000">threads</text>
<polyline fill="none" stroke="#000000" points="61.8794,-1515.5 61.8794,-1603.5 "/>
<text text-anchor="middle" x="75.3242" y="-1588.3" font-family="Times,serif" font-size="14.00" fill="#000000">id</text>
<polyline fill="none" stroke="#000000" points="61.8794,-1581.5 88.769,-1581.5 "/>
<text text-anchor="middle" x="75.3242" y="-1566.3" font-family="Times,serif" font-size="14.00" fill="#000000">0</text>
<polyline fill="none" stroke="#000000" points="61.8794,-1559.5 88.769,-1559.5 "/>
<text text-anchor="middle" x="75.3242" y="-1544.3" font-family="Times,serif" font-size="14.00" fill="#000000">1</text>
<polyline fill="none" stroke="#000000" points="61.8794,-1537.5 88.769,-1537.5 "/>
<text text-anchor="middle" x="75.3242" y="-1522.3" font-family="Times,serif" font-size="14.00" fill="#000000">2</text>
<polyline fill="none" stroke="#000000" points="88.769,-1515.5 88.769,-1603.5 "/>
<text text-anchor="middle" x="123.9829" y="-1588.3" font-family="Times,serif" font-size="14.00" fill="#000000">kind</text>
<polyline fill="none" stroke="#000000" points="88.769,-1581.5 159.1968,-1581.5 "/>
<text text-anchor="middle" x="123.9829" y="-1566.3" font-family="Times,serif" font-size="14.00" fill="#000000">consumer</text>
<polyline fill="none" stroke="#000000" points="88.769,-1559.5 159.1968,-1559.5 "/>
<text text-anchor="middle" x="123.9829" y="-1544.3" font-family="Times,serif" font-size="14.00" fill="#000000">consumer</text>
<polyline fill="none" stroke="#000000" points="88.769,-1537.5 159.1968,-1537.5 "/>
<text text-anchor="middle" x="123.9829" y="-1522.3" font-family="Times,serif" font-size="14.00" fill="#000000">producer</text>
<polyline fill="none" stroke="#000000" points="159.1968,-1515.5 159.1968,-1603.5 "/>
<text text-anchor="middle" x="185.0728" y="-1588.3" font-family="Times,serif" font-size="14.00" fill="#000000">state</text>
<polyline fill="none" stroke="#000000" points="159.1968,-1581.5 210.9487,-1581.5 "/>
<text text-anchor="middle" x="185.0728" y="-1566.3" font-family="Times,serif" font-size="14.00" fill="#000000">awake</text>
<polyline fill="none" stroke="#000000" points="159.1968,-1559.5 210.9487,-1559.5 "/>
<text text-anchor="middle" x="185.0728" y="-1544.3" font-family="Times,serif" font-size="14.00" fill="#000000">awake</text>
<polyline fill="none" stroke="#000000" points="159.1968,-1537.5 210.9487,-1537.5 "/>
<text text-anchor="middle" x="185.0728" y="-1522.3" font-family="Times,serif" font-size="14.00" fill="#000000">awake</text>
<polyline fill="none" stroke="#000000" points="5.4517,-1515.5 210.9487,-1515.5 "/>
<text text-anchor="middle" x="67.2173" y="-1500.3" font-family="Times,serif" font-size="14.00" fill="#000000">occupied</text>
<polyline fill="none" stroke="#000000" points="128.9829,-1493.5 128.9829,-1515.5 "/>
<text text-anchor="middle" x="169.4829" y="-1500.3" font-family="Times,serif" font-size="14.00" fill="#000000">0</text>
<polyline fill="none" stroke="#000000" points="5.4517,-1493.5 210.9487,-1493.5 "/>
<text text-anchor="middle" x="62.7793" y="-1478.3" font-family="Times,serif" font-size="14.00" fill="#000000">put&#45;at</text>
<polyline fill="none" stroke="#000000" points="120.1069,-1471.5 120.1069,-1493.5 "/>
<text text-anchor="middle" x="165.1069" y="-1478.3" font-family="Times,serif" font-size="14.00" fill="#000000">0</text>
<polyline fill="none" stroke="#000000" points="5.4517,-1471.5 210.9487,-1471.5 "/>
<text text-anchor="middle" x="64.4932" y="-1456.3" font-family="Times,serif" font-size="14.00" fill="#000000">take&#45;at</text>
<polyline fill="none" stroke="#000000" points="123.5347,-1449.5 123.5347,-1471.5 "/>
<text text-anchor="middle" x="167.0347" y="-1456.3" font-family="Times,serif" font-size="14.00" fill="#000000">0</text>
</g>
<!-- start&#45;&gt;22 -->
<g id="edge5" class="edge">
<title>start&#45;&gt;22</title>
<path fill="none" stroke="#000000" d="M108.2002,-1449.4132C108.2002,-1442.5375 108.2002,-1435.5689 108.2002,-1428.6326"/>
<polygon fill="#000000" stroke="#000000" points="111.7003,-1428.5076 108.2002,-1418.5076 104.7003,-1428.5077 111.7003,-1428.5076"/>
<text text-anchor="middle" x="111.7002" y="-1429.8" font-family="Times,serif" font-size="14.00" fill="#000000">1</text>
</g>
<!-- 1618 -->
<g id="node8" class="node">
<title>1618</title>
<polygon fill="none" stroke="#000000" points="0,-414.5 0,-590.5 216.4004,-590.5 216.4004,-414.5 0,-414.5"/>
<text text-anchor="middle" x="57.4771" y="-575.3" font-family="Times,serif" font-size="14.00" fill="#000000">buffer</text>
<polyline fill="none" stroke="#000000" points="114.9541,-568.5 114.9541,-590.5 "/>
<text text-anchor="middle" x="165.6748" y="-575.3" font-family="Times,serif" font-size="14.00" fill="#000000">full</text>
<polyline fill="none" stroke="#000000" points="0,-568.5 216.4004,-568.5 "/>
<text text-anchor="middle" x="28.2139" y="-520.3" font-family="Times,serif" font-size="14.00" fill="#000000">threads</text>
<polyline fill="none" stroke="#000000" points="56.4277,-480.5 56.4277,-568.5 "/>
<text text-anchor="middle" x="69.8726" y="-553.3" font-family="Times,serif" font-size="14.00" fill="#000000">id</text>
<polyline fill="none" stroke="#000000" points="56.4277,-546.5 83.3174,-546.5 "/>
<text text-anchor="middle" x="69.8726" y="-531.3" font-family="Times,serif" font-size="14.00" fill="#000000">0</text>
<polyline fill="none" stroke="#000000" points="56.4277,-524.5 83.3174,-524.5 "/>
<text text-anchor="middle" x="69.8726" y="-509.3" font-family="Times,serif" font-size="14.00" fill="#000000">1</text>
<polyline fill="none" stroke="#000000" points="56.4277,-502.5 83.3174,-502.5 "/>
<text text-anchor="middle" x="69.8726" y="-487.3" font-family="Times,serif" font-size="14.00" fill="#000000">2</text>
<polyline fill="none" stroke="#000000" points="83.3174,-480.5 83.3174,-568.5 "/>
<text text-anchor="middle" x="118.5313" y="-553.3" font-family="Times,serif" font-size="14.00" fill="#000000">kind</text>
<polyline fill="none" stroke="#000000" points="83.3174,-546.5 153.7451,-546.5 "/>
<text text-anchor="middle" x="118.5313" y="-531.3" font-family="Times,serif" font-size="14.00" fill="#000000">consumer</text>
<polyline fill="none" stroke="#000000" points="83.3174,-524.5 153.7451,-524.5 "/>
<text text-anchor="middle" x="118.5313" y="-509.3" font-family="Times,serif" font-size="14.00" fill="#000000">consumer</text>
<polyline fill="none" stroke="#000000" points="83.3174,-502.5 153.7451,-502.5 "/>
<text text-anchor="middle" x="118.5313" y="-487.3" font-family="Times,serif" font-size="14.00" fill="#000000">producer</text>
<polyline fill="none" stroke="#000000" points="153.7451,-480.5 153.7451,-568.5 "/>
<text text-anchor="middle" x="185.0728" y="-553.3" font-family="Times,serif" font-size="14.00" fill="#000000">state</text>
<polyline fill="none" stroke="#000000" points="153.7451,-546.5 216.4004,-546.5 "/>
<text text-anchor="middle" x="185.0728" y="-531.3" font-family="Times,serif" font-size="14.00" fill="#000000">awake</text>
<polyline fill="none" stroke="#000000" points="153.7451,-524.5 216.4004,-524.5 "/>
<text text-anchor="middle" x="185.0728" y="-509.3" font-family="Times,serif" font-size="14.00" fill="#000000">awake</text>
<polyline fill="none" stroke="#000000" points="153.7451,-502.5 216.4004,-502.5 "/>
<text text-anchor="middle" x="185.0728" y="-487.3" font-family="Times,serif" font-size="14.00" fill="#000000">sleeping</text>
<polyline fill="none" stroke="#000000" points="0,-480.5 216.4004,-480.5 "/>
<text text-anchor="middle" x="64.7656" y="-465.3" font-family="Times,serif" font-size="14.00" fill="#000000">occupied</text>
<polyline fill="none" stroke="#000000" points="129.5313,-458.5 129.5313,-480.5 "/>
<text text-anchor="middle" x="172.5313" y="-465.3" font-family="Times,serif" font-size="14.00" fill="#000000">0</text>
<polyline fill="none" stroke="#000000" points="0,-458.5 216.4004,-458.5 "/>
<text text-anchor="middle" x="60.3276" y="-443.3" font-family="Times,serif" font-size="14.00" fill="#000000">put&#45;at</text>
<polyline fill="none" stroke="#000000" points="120.6553,-436.5 120.6553,-458.5 "/>
<text text-anchor="middle" x="168.1553" y="-443.3" font-family="Times,serif" font-size="14.00" fill="#000000">1</text>
<polyline fill="none" stroke="#000000" points="0,-436.5 216.4004,-436.5 "/>
<text text-anchor="middle" x="61.5415" y="-421.3" font-family="Times,serif" font-size="14.00" fill="#000000">take&#45;at</text>
<polyline fill="none" stroke="#000000" points="123.083,-414.5 123.083,-436.5 "/>
<text text-anchor="middle" x="169.583" y="-421.3" font-family="Times,serif" font-size="14.00" fill="#000000">1</text>
</g>
<!-- 1619&#45;&gt;1618 -->
<g id="edge6" class="edge">
<title>1619&#45;&gt;1618</title>
<path fill="none" stroke="#000000" d="M108.2002,-621.4132C108.2002,-614.5375 108.2002,-607.5689 108.2002,-600.6326"/>
<polygon fill="#000000" stroke="#000000" points="111.7003,-600.5076 108.2002,-590.5076 104.7003,-600.5077 111.7003,-600.5076"/>
<text text-anchor="middle" x="140.1445" y="-601.8" font-family="Times,serif" font-size="14.00" fill="#000000">1&#45;&gt;notify:0</text>
</g>
<!-- 1618&#45;&gt;1617 -->
<g id="edge7" class="edge">
<title>1618&#45;&gt;1617</title>
<path fill="none" stroke="#000000" d="M108.2002,-414.4132C108.2002,-407.5375 108.2002,-400.5689 108.2002,-393.6326"/>
<polygon fill="#000000" stroke="#000000" points="111.7003,-393.5076 108.2002,-383.5076 104.7003,-393.5077 111.7003,-393.5076"/>
<text text-anchor="middle" x="111.7002" y="-394.8" font-family="Times,serif" font-size="14.00" fill="#000000">1</text>
</g>
</g>
</svg>
