<?xml version="1.0" encoding="UTF-8" standalone="no"?>
<!DOCTYPE svg PUBLIC "-//W3C//DTD SVG 1.1//EN"
 "http://www.w3.org/Graphics/SVG/1.1/DTD/svg11.dtd">
<!-- Generated by graphviz version 2.40.1 (20161225.0304)
 -->
<!-- Title: G Pages: 1 -->
<svg width="215pt" height="1872pt"
 viewBox="0.00 0.00 214.61 1872.00" xmlns="http://www.w3.org/2000/svg" xmlns:xlink="http://www.w3.org/1999/xlink">
<g id="graph0" class="graph" transform="scale(1 1) rotate(0) translate(4 1868)">
<title>G</title>
<polygon fill="#ffffff" stroke="transparent" points="-4,4 -4,-1868 210.6143,-1868 210.6143,4 -4,4"/>
<!-- 19494 -->
<g id="node1" class="node">
<title>19494</title>
<polygon fill="none" stroke="#000000" points="0,-.5 0,-198.5 206.6143,-198.5 206.6143,-.5 0,-.5"/>
<text text-anchor="middle" x="38.7104" y="-150.3" font-family="Times,serif" font-size="14.00" fill="#000000">accounting</text>
<polyline fill="none" stroke="#000000" points="77.4209,-110.5 77.4209,-198.5 "/>
<text text-anchor="middle" x="106.4141" y="-183.3" font-family="Times,serif" font-size="14.00" fill="#000000">process</text>
<polyline fill="none" stroke="#000000" points="77.4209,-176.5 135.4072,-176.5 "/>
<text text-anchor="middle" x="106.4141" y="-161.3" font-family="Times,serif" font-size="14.00" fill="#000000">db</text>
<polyline fill="none" stroke="#000000" points="77.4209,-154.5 135.4072,-154.5 "/>
<text text-anchor="middle" x="106.4141" y="-139.3" font-family="Times,serif" font-size="14.00" fill="#000000">0</text>
<polyline fill="none" stroke="#000000" points="77.4209,-132.5 135.4072,-132.5 "/>
<text text-anchor="middle" x="106.4141" y="-117.3" font-family="Times,serif" font-size="14.00" fill="#000000">1</text>
<polyline fill="none" stroke="#000000" points="135.4072,-110.5 135.4072,-198.5 "/>
<text text-anchor="middle" x="171.0107" y="-183.3" font-family="Times,serif" font-size="14.00" fill="#000000">document</text>
<polyline fill="none" stroke="#000000" points="135.4072,-176.5 206.6143,-176.5 "/>
<text text-anchor="middle" x="171.0107" y="-161.3" font-family="Times,serif" font-size="14.00" fill="#000000">{0:1}</text>
<polyline fill="none" stroke="#000000" points="135.4072,-154.5 206.6143,-154.5 "/>
<text text-anchor="middle" x="171.0107" y="-139.3" font-family="Times,serif" font-size="14.00" fill="#000000">{0:1}</text>
<polyline fill="none" stroke="#000000" points="135.4072,-132.5 206.6143,-132.5 "/>
<text text-anchor="middle" x="171.0107" y="-117.3" font-family="Times,serif" font-size="14.00" fill="#000000">{1:1}</text>
<polyline fill="none" stroke="#000000" points="0,-110.5 206.6143,-110.5 "/>
<text text-anchor="middle" x="34.3726" y="-62.3" font-family="Times,serif" font-size="14.00" fill="#000000">balance</text>
<polyline fill="none" stroke="#000000" points="68.7451,-22.5 68.7451,-110.5 "/>
<text text-anchor="middle" x="103.2383" y="-95.3" font-family="Times,serif" font-size="14.00" fill="#000000">process</text>
<polyline fill="none" stroke="#000000" points="68.7451,-88.5 137.7314,-88.5 "/>
<text text-anchor="middle" x="103.2383" y="-73.3" font-family="Times,serif" font-size="14.00" fill="#000000">db</text>
<polyline fill="none" stroke="#000000" points="68.7451,-66.5 137.7314,-66.5 "/>
<text text-anchor="middle" x="103.2383" y="-51.3" font-family="Times,serif" font-size="14.00" fill="#000000">0</text>
<polyline fill="none" stroke="#000000" points="68.7451,-44.5 137.7314,-44.5 "/>
<text text-anchor="middle" x="103.2383" y="-29.3" font-family="Times,serif" font-size="14.00" fill="#000000">1</text>
<polyline fill="none" stroke="#000000" points="137.7314,-22.5 137.7314,-110.5 "/>
<text text-anchor="middle" x="171.728" y="-95.3" font-family="Times,serif" font-size="14.00" fill="#000000">amount</text>
<polyline fill="none" stroke="#000000" points="137.7314,-88.5 205.7246,-88.5 "/>
<text text-anchor="middle" x="171.728" y="-73.3" font-family="Times,serif" font-size="14.00" fill="#000000">1</text>
<polyline fill="none" stroke="#000000" points="137.7314,-66.5 205.7246,-66.5 "/>
<text text-anchor="middle" x="171.728" y="-51.3" font-family="Times,serif" font-size="14.00" fill="#000000">0</text>
<polyline fill="none" stroke="#000000" points="137.7314,-44.5 205.7246,-44.5 "/>
<text text-anchor="middle" x="171.728" y="-29.3" font-family="Times,serif" font-size="14.00" fill="#000000">1</text>
<polyline fill="none" stroke="#000000" points="0,-22.5 206.6143,-22.5 "/>
<text text-anchor="middle" x="77.0054" y="-7.3" font-family="Times,serif" font-size="14.00" fill="#000000">completed transfers</text>
<polyline fill="none" stroke="#000000" points="154.0107,-.5 154.0107,-22.5 "/>
<text text-anchor="middle" x="180.0107" y="-7.3" font-family="Times,serif" font-size="14.00" fill="#000000">1</text>
</g>
<!-- 15 -->
<g id="node2" class="node">
<title>15</title>
<polygon fill="none" stroke="#000000" points="0,-1308.5 0,-1440.5 206.6143,-1440.5 206.6143,-1308.5 0,-1308.5"/>
<text text-anchor="middle" x="38.7104" y="-1414.3" font-family="Times,serif" font-size="14.00" fill="#000000">accounting</text>
<polyline fill="none" stroke="#000000" points="77.4209,-1396.5 77.4209,-1440.5 "/>
<text text-anchor="middle" x="106.4141" y="-1425.3" font-family="Times,serif" font-size="14.00" fill="#000000">process</text>
<polyline fill="none" stroke="#000000" points="77.4209,-1418.5 135.4072,-1418.5 "/>
<text text-anchor="middle" x="106.4141" y="-1403.3" font-family="Times,serif" font-size="14.00" fill="#000000">db</text>
<polyline fill="none" stroke="#000000" points="135.4072,-1396.5 135.4072,-1440.5 "/>
<text text-anchor="middle" x="171.0107" y="-1425.3" font-family="Times,serif" font-size="14.00" fill="#000000">document</text>
<polyline fill="none" stroke="#000000" points="135.4072,-1418.5 206.6143,-1418.5 "/>
<text text-anchor="middle" x="171.0107" y="-1403.3" font-family="Times,serif" font-size="14.00" fill="#000000">{}</text>
<polyline fill="none" stroke="#000000" points="0,-1396.5 206.6143,-1396.5 "/>
<text text-anchor="middle" x="34.3726" y="-1359.3" font-family="Times,serif" font-size="14.00" fill="#000000">balance</text>
<polyline fill="none" stroke="#000000" points="68.7451,-1330.5 68.7451,-1396.5 "/>
<text text-anchor="middle" x="103.2383" y="-1381.3" font-family="Times,serif" font-size="14.00" fill="#000000">process</text>
<polyline fill="none" stroke="#000000" points="68.7451,-1374.5 137.7314,-1374.5 "/>
<text text-anchor="middle" x="103.2383" y="-1359.3" font-family="Times,serif" font-size="14.00" fill="#000000">db</text>
<polyline fill="none" stroke="#000000" points="68.7451,-1352.5 137.7314,-1352.5 "/>
<text text-anchor="middle" x="103.2383" y="-1337.3" font-family="Times,serif" font-size="14.00" fill="#000000">0</text>
<polyline fill="none" stroke="#000000" points="137.7314,-1330.5 137.7314,-1396.5 "/>
<text text-anchor="middle" x="171.728" y="-1381.3" font-family="Times,serif" font-size="14.00" fill="#000000">amount</text>
<polyline fill="none" stroke="#000000" points="137.7314,-1374.5 205.7246,-1374.5 "/>
<text text-anchor="middle" x="171.728" y="-1359.3" font-family="Times,serif" font-size="14.00" fill="#000000">0</text>
<polyline fill="none" stroke="#000000" points="137.7314,-1352.5 205.7246,-1352.5 "/>
<text text-anchor="middle" x="171.728" y="-1337.3" font-family="Times,serif" font-size="14.00" fill="#000000">0</text>
<polyline fill="none" stroke="#000000" points="0,-1330.5 206.6143,-1330.5 "/>
<text text-anchor="middle" x="78.0054" y="-1315.3" font-family="Times,serif" font-size="14.00" fill="#000000">completed transfers</text>
<polyline fill="none" stroke="#000000" points="156.0107,-1308.5 156.0107,-1330.5 "/>
<text text-anchor="middle" x="181.2607" y="-1315.3" font-family="Times,serif" font-size="14.00" fill="#000000"> </text>
</g>
<!-- 226 -->
<g id="node4" class="node">
<title>226</title>
<polygon fill="none" stroke="#000000" points="0,-1123.5 0,-1277.5 206.6143,-1277.5 206.6143,-1123.5 0,-1123.5"/>
<text text-anchor="middle" x="38.7104" y="-1251.3" font-family="Times,serif" font-size="14.00" fill="#000000">accounting</text>
<polyline fill="none" stroke="#000000" points="77.4209,-1233.5 77.4209,-1277.5 "/>
<text text-anchor="middle" x="106.4141" y="-1262.3" font-family="Times,serif" font-size="14.00" fill="#000000">process</text>
<polyline fill="none" stroke="#000000" points="77.4209,-1255.5 135.4072,-1255.5 "/>
<text text-anchor="middle" x="106.4141" y="-1240.3" font-family="Times,serif" font-size="14.00" fill="#000000">db</text>
<polyline fill="none" stroke="#000000" points="135.4072,-1233.5 135.4072,-1277.5 "/>
<text text-anchor="middle" x="171.0107" y="-1262.3" font-family="Times,serif" font-size="14.00" fill="#000000">document</text>
<polyline fill="none" stroke="#000000" points="135.4072,-1255.5 206.6143,-1255.5 "/>
<text text-anchor="middle" x="171.0107" y="-1240.3" font-family="Times,serif" font-size="14.00" fill="#000000">{}</text>
<polyline fill="none" stroke="#000000" points="0,-1233.5 206.6143,-1233.5 "/>
<text text-anchor="middle" x="34.3726" y="-1185.3" font-family="Times,serif" font-size="14.00" fill="#000000">balance</text>
<polyline fill="none" stroke="#000000" points="68.7451,-1145.5 68.7451,-1233.5 "/>
<text text-anchor="middle" x="103.2383" y="-1218.3" font-family="Times,serif" font-size="14.00" fill="#000000">process</text>
<polyline fill="none" stroke="#000000" points="68.7451,-1211.5 137.7314,-1211.5 "/>
<text text-anchor="middle" x="103.2383" y="-1196.3" font-family="Times,serif" font-size="14.00" fill="#000000">db</text>
<polyline fill="none" stroke="#000000" points="68.7451,-1189.5 137.7314,-1189.5 "/>
<text text-anchor="middle" x="103.2383" y="-1174.3" font-family="Times,serif" font-size="14.00" fill="#000000">0</text>
<polyline fill="none" stroke="#000000" points="68.7451,-1167.5 137.7314,-1167.5 "/>
<text text-anchor="middle" x="103.2383" y="-1152.3" font-family="Times,serif" font-size="14.00" fill="#000000">1</text>
<polyline fill="none" stroke="#000000" points="137.7314,-1145.5 137.7314,-1233.5 "/>
<text text-anchor="middle" x="171.728" y="-1218.3" font-family="Times,serif" font-size="14.00" fill="#000000">amount</text>
<polyline fill="none" stroke="#000000" points="137.7314,-1211.5 205.7246,-1211.5 "/>
<text text-anchor="middle" x="171.728" y="-1196.3" font-family="Times,serif" font-size="14.00" fill="#000000">0</text>
<polyline fill="none" stroke="#000000" points="137.7314,-1189.5 205.7246,-1189.5 "/>
<text text-anchor="middle" x="171.728" y="-1174.3" font-family="Times,serif" font-size="14.00" fill="#000000">0</text>
<polyline fill="none" stroke="#000000" points="137.7314,-1167.5 205.7246,-1167.5 "/>
<text text-anchor="middle" x="171.728" y="-1152.3" font-family="Times,serif" font-size="14.00" fill="#000000">0</text>
<polyline fill="none" stroke="#000000" points="0,-1145.5 206.6143,-1145.5 "/>
<text text-anchor="middle" x="78.0054" y="-1130.3" font-family="Times,serif" font-size="14.00" fill="#000000">completed transfers</text>
<polyline fill="none" stroke="#000000" points="156.0107,-1123.5 156.0107,-1145.5 "/>
<text text-anchor="middle" x="181.2607" y="-1130.3" font-family="Times,serif" font-size="14.00" fill="#000000"> </text>
</g>
<!-- 15&#45;&gt;226 -->
<g id="edge1" class="edge">
<title>15&#45;&gt;226</title>
<path fill="none" stroke="#000000" d="M103.3071,-1308.2217C103.3071,-1301.5109 103.3071,-1294.6255 103.3071,-1287.7381"/>
<polygon fill="#000000" stroke="#000000" points="106.8072,-1287.6659 103.3071,-1277.6659 99.8072,-1287.6659 106.8072,-1287.6659"/>
<text text-anchor="middle" x="135.4497" y="-1288.8" font-family="Times,serif" font-size="14.00" fill="#000000">[BR pid=1]</text>
</g>
<!-- 19496 -->
<g id="node3" class="node">
<title>19496</title>
<polygon fill="none" stroke="#000000" points="0,-458.5 0,-656.5 206.6143,-656.5 206.6143,-458.5 0,-458.5"/>
<text text-anchor="middle" x="38.7104" y="-608.3" font-family="Times,serif" font-size="14.00" fill="#000000">accounting</text>
<polyline fill="none" stroke="#000000" points="77.4209,-568.5 77.4209,-656.5 "/>
<text text-anchor="middle" x="106.4141" y="-641.3" font-family="Times,serif" font-size="14.00" fill="#000000">process</text>
<polyline fill="none" stroke="#000000" points="77.4209,-634.5 135.4072,-634.5 "/>
<text text-anchor="middle" x="106.4141" y="-619.3" font-family="Times,serif" font-size="14.00" fill="#000000">db</text>
<polyline fill="none" stroke="#000000" points="77.4209,-612.5 135.4072,-612.5 "/>
<text text-anchor="middle" x="106.4141" y="-597.3" font-family="Times,serif" font-size="14.00" fill="#000000">0</text>
<polyline fill="none" stroke="#000000" points="77.4209,-590.5 135.4072,-590.5 "/>
<text text-anchor="middle" x="106.4141" y="-575.3" font-family="Times,serif" font-size="14.00" fill="#000000">1</text>
<polyline fill="none" stroke="#000000" points="135.4072,-568.5 135.4072,-656.5 "/>
<text text-anchor="middle" x="171.0107" y="-641.3" font-family="Times,serif" font-size="14.00" fill="#000000">document</text>
<polyline fill="none" stroke="#000000" points="135.4072,-634.5 206.6143,-634.5 "/>
<text text-anchor="middle" x="171.0107" y="-619.3" font-family="Times,serif" font-size="14.00" fill="#000000">{1:1}</text>
<polyline fill="none" stroke="#000000" points="135.4072,-612.5 206.6143,-612.5 "/>
<text text-anchor="middle" x="171.0107" y="-597.3" font-family="Times,serif" font-size="14.00" fill="#000000">{}</text>
<polyline fill="none" stroke="#000000" points="135.4072,-590.5 206.6143,-590.5 "/>
<text text-anchor="middle" x="171.0107" y="-575.3" font-family="Times,serif" font-size="14.00" fill="#000000">{1:1}</text>
<polyline fill="none" stroke="#000000" points="0,-568.5 206.6143,-568.5 "/>
<text text-anchor="middle" x="34.3726" y="-520.3" font-family="Times,serif" font-size="14.00" fill="#000000">balance</text>
<polyline fill="none" stroke="#000000" points="68.7451,-480.5 68.7451,-568.5 "/>
<text text-anchor="middle" x="103.2383" y="-553.3" font-family="Times,serif" font-size="14.00" fill="#000000">process</text>
<polyline fill="none" stroke="#000000" points="68.7451,-546.5 137.7314,-546.5 "/>
<text text-anchor="middle" x="103.2383" y="-531.3" font-family="Times,serif" font-size="14.00" fill="#000000">db</text>
<polyline fill="none" stroke="#000000" points="68.7451,-524.5 137.7314,-524.5 "/>
<text text-anchor="middle" x="103.2383" y="-509.3" font-family="Times,serif" font-size="14.00" fill="#000000">0</text>
<polyline fill="none" stroke="#000000" points="68.7451,-502.5 137.7314,-502.5 "/>
<text text-anchor="middle" x="103.2383" y="-487.3" font-family="Times,serif" font-size="14.00" fill="#000000">1</text>
<polyline fill="none" stroke="#000000" points="137.7314,-480.5 137.7314,-568.5 "/>
<text text-anchor="middle" x="171.728" y="-553.3" font-family="Times,serif" font-size="14.00" fill="#000000">amount</text>
<polyline fill="none" stroke="#000000" points="137.7314,-546.5 205.7246,-546.5 "/>
<text text-anchor="middle" x="171.728" y="-531.3" font-family="Times,serif" font-size="14.00" fill="#000000">0</text>
<polyline fill="none" stroke="#000000" points="137.7314,-524.5 205.7246,-524.5 "/>
<text text-anchor="middle" x="171.728" y="-509.3" font-family="Times,serif" font-size="14.00" fill="#000000">0</text>
<polyline fill="none" stroke="#000000" points="137.7314,-502.5 205.7246,-502.5 "/>
<text text-anchor="middle" x="171.728" y="-487.3" font-family="Times,serif" font-size="14.00" fill="#000000">0</text>
<polyline fill="none" stroke="#000000" points="0,-480.5 206.6143,-480.5 "/>
<text text-anchor="middle" x="78.0054" y="-465.3" font-family="Times,serif" font-size="14.00" fill="#000000">completed transfers</text>
<polyline fill="none" stroke="#000000" points="156.0107,-458.5 156.0107,-480.5 "/>
<text text-anchor="middle" x="181.2607" y="-465.3" font-family="Times,serif" font-size="14.00" fill="#000000"> </text>
</g>
<!-- 19495 -->
<g id="node7" class="node">
<title>19495</title>
<polygon fill="none" stroke="#000000" points="0,-229.5 0,-427.5 206.6143,-427.5 206.6143,-229.5 0,-229.5"/>
<text text-anchor="middle" x="38.7104" y="-379.3" font-family="Times,serif" font-size="14.00" fill="#000000">accounting</text>
<polyline fill="none" stroke="#000000" points="77.4209,-339.5 77.4209,-427.5 "/>
<text text-anchor="middle" x="106.4141" y="-412.3" font-family="Times,serif" font-size="14.00" fill="#000000">process</text>
<polyline fill="none" stroke="#000000" points="77.4209,-405.5 135.4072,-405.5 "/>
<text text-anchor="middle" x="106.4141" y="-390.3" font-family="Times,serif" font-size="14.00" fill="#000000">db</text>
<polyline fill="none" stroke="#000000" points="77.4209,-383.5 135.4072,-383.5 "/>
<text text-anchor="middle" x="106.4141" y="-368.3" font-family="Times,serif" font-size="14.00" fill="#000000">0</text>
<polyline fill="none" stroke="#000000" points="77.4209,-361.5 135.4072,-361.5 "/>
<text text-anchor="middle" x="106.4141" y="-346.3" font-family="Times,serif" font-size="14.00" fill="#000000">1</text>
<polyline fill="none" stroke="#000000" points="135.4072,-339.5 135.4072,-427.5 "/>
<text text-anchor="middle" x="171.0107" y="-412.3" font-family="Times,serif" font-size="14.00" fill="#000000">document</text>
<polyline fill="none" stroke="#000000" points="135.4072,-405.5 206.6143,-405.5 "/>
<text text-anchor="middle" x="171.0107" y="-390.3" font-family="Times,serif" font-size="14.00" fill="#000000">{1:1}</text>
<polyline fill="none" stroke="#000000" points="135.4072,-383.5 206.6143,-383.5 "/>
<text text-anchor="middle" x="171.0107" y="-368.3" font-family="Times,serif" font-size="14.00" fill="#000000">{}</text>
<polyline fill="none" stroke="#000000" points="135.4072,-361.5 206.6143,-361.5 "/>
<text text-anchor="middle" x="171.0107" y="-346.3" font-family="Times,serif" font-size="14.00" fill="#000000">{1:1}</text>
<polyline fill="none" stroke="#000000" points="0,-339.5 206.6143,-339.5 "/>
<text text-anchor="middle" x="34.3726" y="-291.3" font-family="Times,serif" font-size="14.00" fill="#000000">balance</text>
<polyline fill="none" stroke="#000000" points="68.7451,-251.5 68.7451,-339.5 "/>
<text text-anchor="middle" x="103.2383" y="-324.3" font-family="Times,serif" font-size="14.00" fill="#000000">process</text>
<polyline fill="none" stroke="#000000" points="68.7451,-317.5 137.7314,-317.5 "/>
<text text-anchor="middle" x="103.2383" y="-302.3" font-family="Times,serif" font-size="14.00" fill="#000000">db</text>
<polyline fill="none" stroke="#000000" points="68.7451,-295.5 137.7314,-295.5 "/>
<text text-anchor="middle" x="103.2383" y="-280.3" font-family="Times,serif" font-size="14.00" fill="#000000">0</text>
<polyline fill="none" stroke="#000000" points="68.7451,-273.5 137.7314,-273.5 "/>
<text text-anchor="middle" x="103.2383" y="-258.3" font-family="Times,serif" font-size="14.00" fill="#000000">1</text>
<polyline fill="none" stroke="#000000" points="137.7314,-251.5 137.7314,-339.5 "/>
<text text-anchor="middle" x="171.728" y="-324.3" font-family="Times,serif" font-size="14.00" fill="#000000">amount</text>
<polyline fill="none" stroke="#000000" points="137.7314,-317.5 205.7246,-317.5 "/>
<text text-anchor="middle" x="171.728" y="-302.3" font-family="Times,serif" font-size="14.00" fill="#000000">1</text>
<polyline fill="none" stroke="#000000" points="137.7314,-295.5 205.7246,-295.5 "/>
<text text-anchor="middle" x="171.728" y="-280.3" font-family="Times,serif" font-size="14.00" fill="#000000">0</text>
<polyline fill="none" stroke="#000000" points="137.7314,-273.5 205.7246,-273.5 "/>
<text text-anchor="middle" x="171.728" y="-258.3" font-family="Times,serif" font-size="14.00" fill="#000000">1</text>
<polyline fill="none" stroke="#000000" points="0,-251.5 206.6143,-251.5 "/>
<text text-anchor="middle" x="77.0054" y="-236.3" font-family="Times,serif" font-size="14.00" fill="#000000">completed transfers</text>
<polyline fill="none" stroke="#000000" points="154.0107,-229.5 154.0107,-251.5 "/>
<text text-anchor="middle" x="180.0107" y="-236.3" font-family="Times,serif" font-size="14.00" fill="#000000">1</text>
</g>
<!-- 19496&#45;&gt;19495 -->
<g id="edge2" class="edge">
<title>19496&#45;&gt;19495</title>
<path fill="none" stroke="#000000" d="M103.3071,-458.3891C103.3071,-451.5671 103.3071,-444.6707 103.3071,-437.7994"/>
<polygon fill="#000000" stroke="#000000" points="106.8072,-437.7616 103.3071,-427.7616 99.8072,-437.7617 106.8072,-437.7616"/>
<text text-anchor="middle" x="137.2646" y="-438.8" font-family="Times,serif" font-size="14.00" fill="#000000">[BW pid=1]</text>
</g>
<!-- 235 -->
<g id="node5" class="node">
<title>235</title>
<polygon fill="none" stroke="#000000" points="0,-916.5 0,-1092.5 206.6143,-1092.5 206.6143,-916.5 0,-916.5"/>
<text text-anchor="middle" x="38.7104" y="-1055.3" font-family="Times,serif" font-size="14.00" fill="#000000">accounting</text>
<polyline fill="none" stroke="#000000" points="77.4209,-1026.5 77.4209,-1092.5 "/>
<text text-anchor="middle" x="106.4141" y="-1077.3" font-family="Times,serif" font-size="14.00" fill="#000000">process</text>
<polyline fill="none" stroke="#000000" points="77.4209,-1070.5 135.4072,-1070.5 "/>
<text text-anchor="middle" x="106.4141" y="-1055.3" font-family="Times,serif" font-size="14.00" fill="#000000">db</text>
<polyline fill="none" stroke="#000000" points="77.4209,-1048.5 135.4072,-1048.5 "/>
<text text-anchor="middle" x="106.4141" y="-1033.3" font-family="Times,serif" font-size="14.00" fill="#000000">1</text>
<polyline fill="none" stroke="#000000" points="135.4072,-1026.5 135.4072,-1092.5 "/>
<text text-anchor="middle" x="171.0107" y="-1077.3" font-family="Times,serif" font-size="14.00" fill="#000000">document</text>
<polyline fill="none" stroke="#000000" points="135.4072,-1070.5 206.6143,-1070.5 "/>
<text text-anchor="middle" x="171.0107" y="-1055.3" font-family="Times,serif" font-size="14.00" fill="#000000">{}</text>
<polyline fill="none" stroke="#000000" points="135.4072,-1048.5 206.6143,-1048.5 "/>
<text text-anchor="middle" x="171.0107" y="-1033.3" font-family="Times,serif" font-size="14.00" fill="#000000">{}</text>
<polyline fill="none" stroke="#000000" points="0,-1026.5 206.6143,-1026.5 "/>
<text text-anchor="middle" x="34.3726" y="-978.3" font-family="Times,serif" font-size="14.00" fill="#000000">balance</text>
<polyline fill="none" stroke="#000000" points="68.7451,-938.5 68.7451,-1026.5 "/>
<text text-anchor="middle" x="103.2383" y="-1011.3" font-family="Times,serif" font-size="14.00" fill="#000000">process</text>
<polyline fill="none" stroke="#000000" points="68.7451,-1004.5 137.7314,-1004.5 "/>
<text text-anchor="middle" x="103.2383" y="-989.3" font-family="Times,serif" font-size="14.00" fill="#000000">db</text>
<polyline fill="none" stroke="#000000" points="68.7451,-982.5 137.7314,-982.5 "/>
<text text-anchor="middle" x="103.2383" y="-967.3" font-family="Times,serif" font-size="14.00" fill="#000000">0</text>
<polyline fill="none" stroke="#000000" points="68.7451,-960.5 137.7314,-960.5 "/>
<text text-anchor="middle" x="103.2383" y="-945.3" font-family="Times,serif" font-size="14.00" fill="#000000">1</text>
<polyline fill="none" stroke="#000000" points="137.7314,-938.5 137.7314,-1026.5 "/>
<text text-anchor="middle" x="171.728" y="-1011.3" font-family="Times,serif" font-size="14.00" fill="#000000">amount</text>
<polyline fill="none" stroke="#000000" points="137.7314,-1004.5 205.7246,-1004.5 "/>
<text text-anchor="middle" x="171.728" y="-989.3" font-family="Times,serif" font-size="14.00" fill="#000000">0</text>
<polyline fill="none" stroke="#000000" points="137.7314,-982.5 205.7246,-982.5 "/>
<text text-anchor="middle" x="171.728" y="-967.3" font-family="Times,serif" font-size="14.00" fill="#000000">0</text>
<polyline fill="none" stroke="#000000" points="137.7314,-960.5 205.7246,-960.5 "/>
<text text-anchor="middle" x="171.728" y="-945.3" font-family="Times,serif" font-size="14.00" fill="#000000">0</text>
<polyline fill="none" stroke="#000000" points="0,-938.5 206.6143,-938.5 "/>
<text text-anchor="middle" x="78.0054" y="-923.3" font-family="Times,serif" font-size="14.00" fill="#000000">completed transfers</text>
<polyline fill="none" stroke="#000000" points="156.0107,-916.5 156.0107,-938.5 "/>
<text text-anchor="middle" x="181.2607" y="-923.3" font-family="Times,serif" font-size="14.00" fill="#000000"> </text>
</g>
<!-- 226&#45;&gt;235 -->
<g id="edge3" class="edge">
<title>226&#45;&gt;235</title>
<path fill="none" stroke="#000000" d="M103.3071,-1123.317C103.3071,-1116.5513 103.3071,-1109.6469 103.3071,-1102.7409"/>
<polygon fill="#000000" stroke="#000000" points="106.8072,-1102.6376 103.3071,-1092.6376 99.8072,-1102.6377 106.8072,-1102.6376"/>
<text text-anchor="middle" x="135.8359" y="-1103.8" font-family="Times,serif" font-size="14.00" fill="#000000">[AR pid=1]</text>
</g>
<!-- 2312 -->
<g id="node10" class="node">
<title>2312</title>
<polygon fill="none" stroke="#000000" points="0,-687.5 0,-885.5 206.6143,-885.5 206.6143,-687.5 0,-687.5"/>
<text text-anchor="middle" x="38.7104" y="-837.3" font-family="Times,serif" font-size="14.00" fill="#000000">accounting</text>
<polyline fill="none" stroke="#000000" points="77.4209,-797.5 77.4209,-885.5 "/>
<text text-anchor="middle" x="106.4141" y="-870.3" font-family="Times,serif" font-size="14.00" fill="#000000">process</text>
<polyline fill="none" stroke="#000000" points="77.4209,-863.5 135.4072,-863.5 "/>
<text text-anchor="middle" x="106.4141" y="-848.3" font-family="Times,serif" font-size="14.00" fill="#000000">db</text>
<polyline fill="none" stroke="#000000" points="77.4209,-841.5 135.4072,-841.5 "/>
<text text-anchor="middle" x="106.4141" y="-826.3" font-family="Times,serif" font-size="14.00" fill="#000000">0</text>
<polyline fill="none" stroke="#000000" points="77.4209,-819.5 135.4072,-819.5 "/>
<text text-anchor="middle" x="106.4141" y="-804.3" font-family="Times,serif" font-size="14.00" fill="#000000">1</text>
<polyline fill="none" stroke="#000000" points="135.4072,-797.5 135.4072,-885.5 "/>
<text text-anchor="middle" x="171.0107" y="-870.3" font-family="Times,serif" font-size="14.00" fill="#000000">document</text>
<polyline fill="none" stroke="#000000" points="135.4072,-863.5 206.6143,-863.5 "/>
<text text-anchor="middle" x="171.0107" y="-848.3" font-family="Times,serif" font-size="14.00" fill="#000000">{}</text>
<polyline fill="none" stroke="#000000" points="135.4072,-841.5 206.6143,-841.5 "/>
<text text-anchor="middle" x="171.0107" y="-826.3" font-family="Times,serif" font-size="14.00" fill="#000000">{}</text>
<polyline fill="none" stroke="#000000" points="135.4072,-819.5 206.6143,-819.5 "/>
<text text-anchor="middle" x="171.0107" y="-804.3" font-family="Times,serif" font-size="14.00" fill="#000000">{}</text>
<polyline fill="none" stroke="#000000" points="0,-797.5 206.6143,-797.5 "/>
<text text-anchor="middle" x="34.3726" y="-749.3" font-family="Times,serif" font-size="14.00" fill="#000000">balance</text>
<polyline fill="none" stroke="#000000" points="68.7451,-709.5 68.7451,-797.5 "/>
<text text-anchor="middle" x="103.2383" y="-782.3" font-family="Times,serif" font-size="14.00" fill="#000000">process</text>
<polyline fill="none" stroke="#000000" points="68.7451,-775.5 137.7314,-775.5 "/>
<text text-anchor="middle" x="103.2383" y="-760.3" font-family="Times,serif" font-size="14.00" fill="#000000">db</text>
<polyline fill="none" stroke="#000000" points="68.7451,-753.5 137.7314,-753.5 "/>
<text text-anchor="middle" x="103.2383" y="-738.3" font-family="Times,serif" font-size="14.00" fill="#000000">0</text>
<polyline fill="none" stroke="#000000" points="68.7451,-731.5 137.7314,-731.5 "/>
<text text-anchor="middle" x="103.2383" y="-716.3" font-family="Times,serif" font-size="14.00" fill="#000000">1</text>
<polyline fill="none" stroke="#000000" points="137.7314,-709.5 137.7314,-797.5 "/>
<text text-anchor="middle" x="171.728" y="-782.3" font-family="Times,serif" font-size="14.00" fill="#000000">amount</text>
<polyline fill="none" stroke="#000000" points="137.7314,-775.5 205.7246,-775.5 "/>
<text text-anchor="middle" x="171.728" y="-760.3" font-family="Times,serif" font-size="14.00" fill="#000000">0</text>
<polyline fill="none" stroke="#000000" points="137.7314,-753.5 205.7246,-753.5 "/>
<text text-anchor="middle" x="171.728" y="-738.3" font-family="Times,serif" font-size="14.00" fill="#000000">0</text>
<polyline fill="none" stroke="#000000" points="137.7314,-731.5 205.7246,-731.5 "/>
<text text-anchor="middle" x="171.728" y="-716.3" font-family="Times,serif" font-size="14.00" fill="#000000">0</text>
<polyline fill="none" stroke="#000000" points="0,-709.5 206.6143,-709.5 "/>
<text text-anchor="middle" x="78.0054" y="-694.3" font-family="Times,serif" font-size="14.00" fill="#000000">completed transfers</text>
<polyline fill="none" stroke="#000000" points="156.0107,-687.5 156.0107,-709.5 "/>
<text text-anchor="middle" x="181.2607" y="-694.3" font-family="Times,serif" font-size="14.00" fill="#000000"> </text>
</g>
<!-- 235&#45;&gt;2312 -->
<g id="edge4" class="edge">
<title>235&#45;&gt;2312</title>
<path fill="none" stroke="#000000" d="M103.3071,-916.4594C103.3071,-909.6314 103.3071,-902.6894 103.3071,-895.746"/>
<polygon fill="#000000" stroke="#000000" points="106.8072,-895.5853 103.3071,-885.5853 99.8072,-895.5854 106.8072,-895.5853"/>
<text text-anchor="middle" x="135.8359" y="-896.8" font-family="Times,serif" font-size="14.00" fill="#000000">[AR pid=0]</text>
</g>
<!-- start -->
<g id="node6" class="node">
<title>start</title>
<polygon fill="none" stroke="#000000" points="0,-1753.5 0,-1863.5 206.6143,-1863.5 206.6143,-1753.5 0,-1753.5"/>
<text text-anchor="middle" x="38.7104" y="-1837.3" font-family="Times,serif" font-size="14.00" fill="#000000">accounting</text>
<polyline fill="none" stroke="#000000" points="77.4209,-1819.5 77.4209,-1863.5 "/>
<text text-anchor="middle" x="106.4141" y="-1848.3" font-family="Times,serif" font-size="14.00" fill="#000000">process</text>
<polyline fill="none" stroke="#000000" points="77.4209,-1841.5 135.4072,-1841.5 "/>
<text text-anchor="middle" x="106.4141" y="-1826.3" font-family="Times,serif" font-size="14.00" fill="#000000">db</text>
<polyline fill="none" stroke="#000000" points="135.4072,-1819.5 135.4072,-1863.5 "/>
<text text-anchor="middle" x="171.0107" y="-1848.3" font-family="Times,serif" font-size="14.00" fill="#000000">document</text>
<polyline fill="none" stroke="#000000" points="135.4072,-1841.5 206.6143,-1841.5 "/>
<text text-anchor="middle" x="171.0107" y="-1826.3" font-family="Times,serif" font-size="14.00" fill="#000000">{}</text>
<polyline fill="none" stroke="#000000" points="0,-1819.5 206.6143,-1819.5 "/>
<text text-anchor="middle" x="34.3726" y="-1793.3" font-family="Times,serif" font-size="14.00" fill="#000000">balance</text>
<polyline fill="none" stroke="#000000" points="68.7451,-1775.5 68.7451,-1819.5 "/>
<text text-anchor="middle" x="103.2383" y="-1804.3" font-family="Times,serif" font-size="14.00" fill="#000000">process</text>
<polyline fill="none" stroke="#000000" points="68.7451,-1797.5 137.7314,-1797.5 "/>
<text text-anchor="middle" x="103.2383" y="-1782.3" font-family="Times,serif" font-size="14.00" fill="#000000">db</text>
<polyline fill="none" stroke="#000000" points="137.7314,-1775.5 137.7314,-1819.5 "/>
<text text-anchor="middle" x="171.728" y="-1804.3" font-family="Times,serif" font-size="14.00" fill="#000000">amount</text>
<polyline fill="none" stroke="#000000" points="137.7314,-1797.5 205.7246,-1797.5 "/>
<text text-anchor="middle" x="171.728" y="-1782.3" font-family="Times,serif" font-size="14.00" fill="#000000">0</text>
<polyline fill="none" stroke="#000000" points="0,-1775.5 206.6143,-1775.5 "/>
<text text-anchor="middle" x="78.0054" y="-1760.3" font-family="Times,serif" font-size="14.00" fill="#000000">completed transfers</text>
<polyline fill="none" stroke="#000000" points="156.0107,-1753.5 156.0107,-1775.5 "/>
<text text-anchor="middle" x="181.2607" y="-1760.3" font-family="Times,serif" font-size="14.00" fill="#000000"> </text>
</g>
<!-- 5 -->
<g id="node8" class="node">
<title>5</title>
<polygon fill="none" stroke="#000000" points="0,-1612.5 0,-1722.5 206.6143,-1722.5 206.6143,-1612.5 0,-1612.5"/>
<text text-anchor="middle" x="38.7104" y="-1696.3" font-family="Times,serif" font-size="14.00" fill="#000000">accounting</text>
<polyline fill="none" stroke="#000000" points="77.4209,-1678.5 77.4209,-1722.5 "/>
<text text-anchor="middle" x="106.4141" y="-1707.3" font-family="Times,serif" font-size="14.00" fill="#000000">process</text>
<polyline fill="none" stroke="#000000" points="77.4209,-1700.5 135.4072,-1700.5 "/>
<text text-anchor="middle" x="106.4141" y="-1685.3" font-family="Times,serif" font-size="14.00" fill="#000000">db</text>
<polyline fill="none" stroke="#000000" points="135.4072,-1678.5 135.4072,-1722.5 "/>
<text text-anchor="middle" x="171.0107" y="-1707.3" font-family="Times,serif" font-size="14.00" fill="#000000">document</text>
<polyline fill="none" stroke="#000000" points="135.4072,-1700.5 206.6143,-1700.5 "/>
<text text-anchor="middle" x="171.0107" y="-1685.3" font-family="Times,serif" font-size="14.00" fill="#000000">{}</text>
<polyline fill="none" stroke="#000000" points="0,-1678.5 206.6143,-1678.5 "/>
<text text-anchor="middle" x="34.3726" y="-1652.3" font-family="Times,serif" font-size="14.00" fill="#000000">balance</text>
<polyline fill="none" stroke="#000000" points="68.7451,-1634.5 68.7451,-1678.5 "/>
<text text-anchor="middle" x="103.2383" y="-1663.3" font-family="Times,serif" font-size="14.00" fill="#000000">process</text>
<polyline fill="none" stroke="#000000" points="68.7451,-1656.5 137.7314,-1656.5 "/>
<text text-anchor="middle" x="103.2383" y="-1641.3" font-family="Times,serif" font-size="14.00" fill="#000000">db</text>
<polyline fill="none" stroke="#000000" points="137.7314,-1634.5 137.7314,-1678.5 "/>
<text text-anchor="middle" x="171.728" y="-1663.3" font-family="Times,serif" font-size="14.00" fill="#000000">amount</text>
<polyline fill="none" stroke="#000000" points="137.7314,-1656.5 205.7246,-1656.5 "/>
<text text-anchor="middle" x="171.728" y="-1641.3" font-family="Times,serif" font-size="14.00" fill="#000000">0</text>
<polyline fill="none" stroke="#000000" points="0,-1634.5 206.6143,-1634.5 "/>
<text text-anchor="middle" x="78.0054" y="-1619.3" font-family="Times,serif" font-size="14.00" fill="#000000">completed transfers</text>
<polyline fill="none" stroke="#000000" points="156.0107,-1612.5 156.0107,-1634.5 "/>
<text text-anchor="middle" x="181.2607" y="-1619.3" font-family="Times,serif" font-size="14.00" fill="#000000"> </text>
</g>
<!-- start&#45;&gt;5 -->
<g id="edge5" class="edge">
<title>start&#45;&gt;5</title>
<path fill="none" stroke="#000000" d="M103.3071,-1753.1778C103.3071,-1746.5957 103.3071,-1739.8284 103.3071,-1733.1202"/>
<polygon fill="#000000" stroke="#000000" points="106.8072,-1732.6627 103.3071,-1722.6627 99.8072,-1732.6627 106.8072,-1732.6627"/>
<text text-anchor="middle" x="138.7686" y="-1733.8" font-family="Times,serif" font-size="14.00" fill="#000000">[+1€ pid=0]</text>
</g>
<!-- 19495&#45;&gt;19494 -->
<g id="edge6" class="edge">
<title>19495&#45;&gt;19494</title>
<path fill="none" stroke="#000000" d="M103.3071,-229.3891C103.3071,-222.5671 103.3071,-215.6707 103.3071,-208.7994"/>
<polygon fill="#000000" stroke="#000000" points="106.8072,-208.7616 103.3071,-198.7616 99.8072,-208.7617 106.8072,-208.7616"/>
<text text-anchor="middle" x="137.0938" y="-209.8" font-family="Times,serif" font-size="14.00" fill="#000000">[AW pid=0]</text>
</g>
<!-- 16 -->
<g id="node9" class="node">
<title>16</title>
<polygon fill="none" stroke="#000000" points="0,-1471.5 0,-1581.5 206.6143,-1581.5 206.6143,-1471.5 0,-1471.5"/>
<text text-anchor="middle" x="38.7104" y="-1555.3" font-family="Times,serif" font-size="14.00" fill="#000000">accounting</text>
<polyline fill="none" stroke="#000000" points="77.4209,-1537.5 77.4209,-1581.5 "/>
<text text-anchor="middle" x="106.4141" y="-1566.3" font-family="Times,serif" font-size="14.00" fill="#000000">process</text>
<polyline fill="none" stroke="#000000" points="77.4209,-1559.5 135.4072,-1559.5 "/>
<text text-anchor="middle" x="106.4141" y="-1544.3" font-family="Times,serif" font-size="14.00" fill="#000000">db</text>
<polyline fill="none" stroke="#000000" points="135.4072,-1537.5 135.4072,-1581.5 "/>
<text text-anchor="middle" x="171.0107" y="-1566.3" font-family="Times,serif" font-size="14.00" fill="#000000">document</text>
<polyline fill="none" stroke="#000000" points="135.4072,-1559.5 206.6143,-1559.5 "/>
<text text-anchor="middle" x="171.0107" y="-1544.3" font-family="Times,serif" font-size="14.00" fill="#000000">{}</text>
<polyline fill="none" stroke="#000000" points="0,-1537.5 206.6143,-1537.5 "/>
<text text-anchor="middle" x="34.3726" y="-1511.3" font-family="Times,serif" font-size="14.00" fill="#000000">balance</text>
<polyline fill="none" stroke="#000000" points="68.7451,-1493.5 68.7451,-1537.5 "/>
<text text-anchor="middle" x="103.2383" y="-1522.3" font-family="Times,serif" font-size="14.00" fill="#000000">process</text>
<polyline fill="none" stroke="#000000" points="68.7451,-1515.5 137.7314,-1515.5 "/>
<text text-anchor="middle" x="103.2383" y="-1500.3" font-family="Times,serif" font-size="14.00" fill="#000000">db</text>
<polyline fill="none" stroke="#000000" points="137.7314,-1493.5 137.7314,-1537.5 "/>
<text text-anchor="middle" x="171.728" y="-1522.3" font-family="Times,serif" font-size="14.00" fill="#000000">amount</text>
<polyline fill="none" stroke="#000000" points="137.7314,-1515.5 205.7246,-1515.5 "/>
<text text-anchor="middle" x="171.728" y="-1500.3" font-family="Times,serif" font-size="14.00" fill="#000000">0</text>
<polyline fill="none" stroke="#000000" points="0,-1493.5 206.6143,-1493.5 "/>
<text text-anchor="middle" x="78.0054" y="-1478.3" font-family="Times,serif" font-size="14.00" fill="#000000">completed transfers</text>
<polyline fill="none" stroke="#000000" points="156.0107,-1471.5 156.0107,-1493.5 "/>
<text text-anchor="middle" x="181.2607" y="-1478.3" font-family="Times,serif" font-size="14.00" fill="#000000"> </text>
</g>
<!-- 5&#45;&gt;16 -->
<g id="edge7" class="edge">
<title>5&#45;&gt;16</title>
<path fill="none" stroke="#000000" d="M103.3071,-1612.1778C103.3071,-1605.5957 103.3071,-1598.8284 103.3071,-1592.1202"/>
<polygon fill="#000000" stroke="#000000" points="106.8072,-1591.6627 103.3071,-1581.6627 99.8072,-1591.6627 106.8072,-1591.6627"/>
<text text-anchor="middle" x="138.7686" y="-1592.8" font-family="Times,serif" font-size="14.00" fill="#000000">[+1€ pid=1]</text>
</g>
<!-- 16&#45;&gt;15 -->
<g id="edge8" class="edge">
<title>16&#45;&gt;15</title>
<path fill="none" stroke="#000000" d="M103.3071,-1471.1945C103.3071,-1464.5219 103.3071,-1457.6188 103.3071,-1450.7134"/>
<polygon fill="#000000" stroke="#000000" points="106.8072,-1450.621 103.3071,-1440.6211 99.8072,-1450.6211 106.8072,-1450.621"/>
<text text-anchor="middle" x="135.4497" y="-1451.8" font-family="Times,serif" font-size="14.00" fill="#000000">[BR pid=0]</text>
</g>
<!-- 2312&#45;&gt;19496 -->
<g id="edge9" class="edge">
<title>2312&#45;&gt;19496</title>
<path fill="none" stroke="#000000" d="M103.3071,-687.3891C103.3071,-680.5671 103.3071,-673.6707 103.3071,-666.7994"/>
<polygon fill="#000000" stroke="#000000" points="106.8072,-666.7616 103.3071,-656.7616 99.8072,-666.7617 106.8072,-666.7616"/>
<text text-anchor="middle" x="137.0938" y="-667.8" font-family="Times,serif" font-size="14.00" fill="#000000">[AW pid=1]</text>
</g>
</g>
</svg>
