<?xml version="1.0" encoding="UTF-8" standalone="no"?>
<!DOCTYPE svg PUBLIC "-//W3C//DTD SVG 1.1//EN"
 "http://www.w3.org/Graphics/SVG/1.1/DTD/svg11.dtd">
<!-- Generated by graphviz version 2.40.1 (20161225.0304)
 -->
<!-- Title: G Pages: 1 -->
<svg width="1340pt" height="423pt"
 viewBox="0.00 0.00 1339.61 423.00" xmlns="http://www.w3.org/2000/svg" xmlns:xlink="http://www.w3.org/1999/xlink">
<g id="graph0" class="graph" transform="scale(1 1) rotate(0) translate(4 419)">
<title>G</title>
<polygon fill="#ffffff" stroke="transparent" points="-4,4 -4,-419 1335.6143,-419 1335.6143,4 -4,4"/>
<!-- 7 -->
<g id="node1" class="node">
<title>7</title>
<polygon fill="none" stroke="#000000" points="338,-163.5 338,-273.5 544.6143,-273.5 544.6143,-163.5 338,-163.5"/>
<text text-anchor="middle" x="376.7104" y="-247.3" font-family="Times,serif" font-size="14.00" fill="#000000">accounting</text>
<polyline fill="none" stroke="#000000" points="415.4209,-229.5 415.4209,-273.5 "/>
<text text-anchor="middle" x="444.4141" y="-258.3" font-family="Times,serif" font-size="14.00" fill="#000000">process</text>
<polyline fill="none" stroke="#000000" points="415.4209,-251.5 473.4072,-251.5 "/>
<text text-anchor="middle" x="444.4141" y="-236.3" font-family="Times,serif" font-size="14.00" fill="#000000">db</text>
<polyline fill="none" stroke="#000000" points="473.4072,-229.5 473.4072,-273.5 "/>
<text text-anchor="middle" x="509.0107" y="-258.3" font-family="Times,serif" font-size="14.00" fill="#000000">document</text>
<polyline fill="none" stroke="#000000" points="473.4072,-251.5 544.6143,-251.5 "/>
<text text-anchor="middle" x="509.0107" y="-236.3" font-family="Times,serif" font-size="14.00" fill="#000000">{}</text>
<polyline fill="none" stroke="#000000" points="338,-229.5 544.6143,-229.5 "/>
<text text-anchor="middle" x="372.3726" y="-203.3" font-family="Times,serif" font-size="14.00" fill="#000000">balance</text>
<polyline fill="none" stroke="#000000" points="406.7451,-185.5 406.7451,-229.5 "/>
<text text-anchor="middle" x="441.2383" y="-214.3" font-family="Times,serif" font-size="14.00" fill="#000000">process</text>
<polyline fill="none" stroke="#000000" points="406.7451,-207.5 475.7314,-207.5 "/>
<text text-anchor="middle" x="441.2383" y="-192.3" font-family="Times,serif" font-size="14.00" fill="#000000">db</text>
<polyline fill="none" stroke="#000000" points="475.7314,-185.5 475.7314,-229.5 "/>
<text text-anchor="middle" x="509.728" y="-214.3" font-family="Times,serif" font-size="14.00" fill="#000000">amount</text>
<polyline fill="none" stroke="#000000" points="475.7314,-207.5 543.7246,-207.5 "/>
<text text-anchor="middle" x="509.728" y="-192.3" font-family="Times,serif" font-size="14.00" fill="#000000">0</text>
<polyline fill="none" stroke="#000000" points="338,-185.5 544.6143,-185.5 "/>
<text text-anchor="middle" x="416.0054" y="-170.3" font-family="Times,serif" font-size="14.00" fill="#000000">completed transfers</text>
<polyline fill="none" stroke="#000000" points="494.0107,-163.5 494.0107,-185.5 "/>
<text text-anchor="middle" x="519.2607" y="-170.3" font-family="Times,serif" font-size="14.00" fill="#000000"> </text>
</g>
<!-- 20 -->
<g id="node2" class="node">
<title>20</title>
<polygon fill="none" stroke="#000000" points="0,-11.5 0,-121.5 206.6143,-121.5 206.6143,-11.5 0,-11.5"/>
<text text-anchor="middle" x="38.7104" y="-95.3" font-family="Times,serif" font-size="14.00" fill="#000000">accounting</text>
<polyline fill="none" stroke="#000000" points="77.4209,-77.5 77.4209,-121.5 "/>
<text text-anchor="middle" x="106.4141" y="-106.3" font-family="Times,serif" font-size="14.00" fill="#000000">process</text>
<polyline fill="none" stroke="#000000" points="77.4209,-99.5 135.4072,-99.5 "/>
<text text-anchor="middle" x="106.4141" y="-84.3" font-family="Times,serif" font-size="14.00" fill="#000000">db</text>
<polyline fill="none" stroke="#000000" points="135.4072,-77.5 135.4072,-121.5 "/>
<text text-anchor="middle" x="171.0107" y="-106.3" font-family="Times,serif" font-size="14.00" fill="#000000">document</text>
<polyline fill="none" stroke="#000000" points="135.4072,-99.5 206.6143,-99.5 "/>
<text text-anchor="middle" x="171.0107" y="-84.3" font-family="Times,serif" font-size="14.00" fill="#000000">{}</text>
<polyline fill="none" stroke="#000000" points="0,-77.5 206.6143,-77.5 "/>
<text text-anchor="middle" x="34.3726" y="-51.3" font-family="Times,serif" font-size="14.00" fill="#000000">balance</text>
<polyline fill="none" stroke="#000000" points="68.7451,-33.5 68.7451,-77.5 "/>
<text text-anchor="middle" x="103.2383" y="-62.3" font-family="Times,serif" font-size="14.00" fill="#000000">process</text>
<polyline fill="none" stroke="#000000" points="68.7451,-55.5 137.7314,-55.5 "/>
<text text-anchor="middle" x="103.2383" y="-40.3" font-family="Times,serif" font-size="14.00" fill="#000000">db</text>
<polyline fill="none" stroke="#000000" points="137.7314,-33.5 137.7314,-77.5 "/>
<text text-anchor="middle" x="171.728" y="-62.3" font-family="Times,serif" font-size="14.00" fill="#000000">amount</text>
<polyline fill="none" stroke="#000000" points="137.7314,-55.5 205.7246,-55.5 "/>
<text text-anchor="middle" x="171.728" y="-40.3" font-family="Times,serif" font-size="14.00" fill="#000000">0</text>
<polyline fill="none" stroke="#000000" points="0,-33.5 206.6143,-33.5 "/>
<text text-anchor="middle" x="78.0054" y="-18.3" font-family="Times,serif" font-size="14.00" fill="#000000">completed transfers</text>
<polyline fill="none" stroke="#000000" points="156.0107,-11.5 156.0107,-33.5 "/>
<text text-anchor="middle" x="181.2607" y="-18.3" font-family="Times,serif" font-size="14.00" fill="#000000"> </text>
</g>
<!-- 7&#45;&gt;20 -->
<g id="edge2" class="edge">
<title>7&#45;&gt;20</title>
<path fill="none" stroke="#000000" d="M337.8473,-183.3439C299.1114,-169.1045 255.1097,-151.6258 216.3071,-133 211.9207,-130.8944 207.479,-128.6769 203.0218,-126.3807"/>
<polygon fill="#000000" stroke="#000000" points="204.3441,-123.1218 193.8638,-121.5678 201.0875,-129.3182 204.3441,-123.1218"/>
<text text-anchor="middle" x="299.1519" y="-143.8" font-family="Times,serif" font-size="14.00" fill="#000000">[&#45;1€ pid=1]</text>
</g>
<!-- 6 -->
<g id="node5" class="node">
<title>6</title>
<polygon fill="none" stroke="#000000" points="225,-.5 225,-132.5 431.6143,-132.5 431.6143,-.5 225,-.5"/>
<text text-anchor="middle" x="263.7104" y="-106.3" font-family="Times,serif" font-size="14.00" fill="#000000">accounting</text>
<polyline fill="none" stroke="#000000" points="302.4209,-88.5 302.4209,-132.5 "/>
<text text-anchor="middle" x="331.4141" y="-117.3" font-family="Times,serif" font-size="14.00" fill="#000000">process</text>
<polyline fill="none" stroke="#000000" points="302.4209,-110.5 360.4072,-110.5 "/>
<text text-anchor="middle" x="331.4141" y="-95.3" font-family="Times,serif" font-size="14.00" fill="#000000">db</text>
<polyline fill="none" stroke="#000000" points="360.4072,-88.5 360.4072,-132.5 "/>
<text text-anchor="middle" x="396.0107" y="-117.3" font-family="Times,serif" font-size="14.00" fill="#000000">document</text>
<polyline fill="none" stroke="#000000" points="360.4072,-110.5 431.6143,-110.5 "/>
<text text-anchor="middle" x="396.0107" y="-95.3" font-family="Times,serif" font-size="14.00" fill="#000000">{}</text>
<polyline fill="none" stroke="#000000" points="225,-88.5 431.6143,-88.5 "/>
<text text-anchor="middle" x="259.3726" y="-51.3" font-family="Times,serif" font-size="14.00" fill="#000000">balance</text>
<polyline fill="none" stroke="#000000" points="293.7451,-22.5 293.7451,-88.5 "/>
<text text-anchor="middle" x="328.2383" y="-73.3" font-family="Times,serif" font-size="14.00" fill="#000000">process</text>
<polyline fill="none" stroke="#000000" points="293.7451,-66.5 362.7314,-66.5 "/>
<text text-anchor="middle" x="328.2383" y="-51.3" font-family="Times,serif" font-size="14.00" fill="#000000">db</text>
<polyline fill="none" stroke="#000000" points="293.7451,-44.5 362.7314,-44.5 "/>
<text text-anchor="middle" x="328.2383" y="-29.3" font-family="Times,serif" font-size="14.00" fill="#000000">0</text>
<polyline fill="none" stroke="#000000" points="362.7314,-22.5 362.7314,-88.5 "/>
<text text-anchor="middle" x="396.728" y="-73.3" font-family="Times,serif" font-size="14.00" fill="#000000">amount</text>
<polyline fill="none" stroke="#000000" points="362.7314,-66.5 430.7246,-66.5 "/>
<text text-anchor="middle" x="396.728" y="-51.3" font-family="Times,serif" font-size="14.00" fill="#000000">0</text>
<polyline fill="none" stroke="#000000" points="362.7314,-44.5 430.7246,-44.5 "/>
<text text-anchor="middle" x="396.728" y="-29.3" font-family="Times,serif" font-size="14.00" fill="#000000">0</text>
<polyline fill="none" stroke="#000000" points="225,-22.5 431.6143,-22.5 "/>
<text text-anchor="middle" x="303.0054" y="-7.3" font-family="Times,serif" font-size="14.00" fill="#000000">completed transfers</text>
<polyline fill="none" stroke="#000000" points="381.0107,-.5 381.0107,-22.5 "/>
<text text-anchor="middle" x="406.2607" y="-7.3" font-family="Times,serif" font-size="14.00" fill="#000000"> </text>
</g>
<!-- 7&#45;&gt;6 -->
<g id="edge3" class="edge">
<title>7&#45;&gt;6</title>
<path fill="none" stroke="#000000" d="M400.1919,-163.1945C394.7698,-155.9011 389.1431,-148.3325 383.5332,-140.7864"/>
<polygon fill="#000000" stroke="#000000" points="386.238,-138.5582 377.4629,-132.6211 380.6203,-142.7345 386.238,-138.5582"/>
<text text-anchor="middle" x="424.4497" y="-143.8" font-family="Times,serif" font-size="14.00" fill="#000000">[BR pid=0]</text>
</g>
<!-- 12 -->
<g id="node7" class="node">
<title>12</title>
<polygon fill="none" stroke="#000000" points="450,-11.5 450,-121.5 656.6143,-121.5 656.6143,-11.5 450,-11.5"/>
<text text-anchor="middle" x="488.7104" y="-95.3" font-family="Times,serif" font-size="14.00" fill="#000000">accounting</text>
<polyline fill="none" stroke="#000000" points="527.4209,-77.5 527.4209,-121.5 "/>
<text text-anchor="middle" x="556.4141" y="-106.3" font-family="Times,serif" font-size="14.00" fill="#000000">process</text>
<polyline fill="none" stroke="#000000" points="527.4209,-99.5 585.4072,-99.5 "/>
<text text-anchor="middle" x="556.4141" y="-84.3" font-family="Times,serif" font-size="14.00" fill="#000000">db</text>
<polyline fill="none" stroke="#000000" points="585.4072,-77.5 585.4072,-121.5 "/>
<text text-anchor="middle" x="621.0107" y="-106.3" font-family="Times,serif" font-size="14.00" fill="#000000">document</text>
<polyline fill="none" stroke="#000000" points="585.4072,-99.5 656.6143,-99.5 "/>
<text text-anchor="middle" x="621.0107" y="-84.3" font-family="Times,serif" font-size="14.00" fill="#000000">{}</text>
<polyline fill="none" stroke="#000000" points="450,-77.5 656.6143,-77.5 "/>
<text text-anchor="middle" x="484.3726" y="-51.3" font-family="Times,serif" font-size="14.00" fill="#000000">balance</text>
<polyline fill="none" stroke="#000000" points="518.7451,-33.5 518.7451,-77.5 "/>
<text text-anchor="middle" x="553.2383" y="-62.3" font-family="Times,serif" font-size="14.00" fill="#000000">process</text>
<polyline fill="none" stroke="#000000" points="518.7451,-55.5 587.7314,-55.5 "/>
<text text-anchor="middle" x="553.2383" y="-40.3" font-family="Times,serif" font-size="14.00" fill="#000000">db</text>
<polyline fill="none" stroke="#000000" points="587.7314,-33.5 587.7314,-77.5 "/>
<text text-anchor="middle" x="621.728" y="-62.3" font-family="Times,serif" font-size="14.00" fill="#000000">amount</text>
<polyline fill="none" stroke="#000000" points="587.7314,-55.5 655.7246,-55.5 "/>
<text text-anchor="middle" x="621.728" y="-40.3" font-family="Times,serif" font-size="14.00" fill="#000000">0</text>
<polyline fill="none" stroke="#000000" points="450,-33.5 656.6143,-33.5 "/>
<text text-anchor="middle" x="528.0054" y="-18.3" font-family="Times,serif" font-size="14.00" fill="#000000">completed transfers</text>
<polyline fill="none" stroke="#000000" points="606.0107,-11.5 606.0107,-33.5 "/>
<text text-anchor="middle" x="631.2607" y="-18.3" font-family="Times,serif" font-size="14.00" fill="#000000"> </text>
</g>
<!-- 7&#45;&gt;12 -->
<g id="edge1" class="edge">
<title>7&#45;&gt;12</title>
<path fill="none" stroke="#000000" d="M482.0585,-163.1945C490.0331,-152.3718 498.4543,-140.9431 506.6052,-129.8812"/>
<polygon fill="#000000" stroke="#000000" points="509.6593,-131.6366 512.7736,-121.5098 504.0239,-127.4842 509.6593,-131.6366"/>
<text text-anchor="middle" x="532.7686" y="-143.8" font-family="Times,serif" font-size="14.00" fill="#000000">[+1€ pid=1]</text>
</g>
<!-- 4 -->
<g id="node3" class="node">
<title>4</title>
<polygon fill="none" stroke="#000000" points="675,-.5 675,-132.5 881.6143,-132.5 881.6143,-.5 675,-.5"/>
<text text-anchor="middle" x="713.7104" y="-106.3" font-family="Times,serif" font-size="14.00" fill="#000000">accounting</text>
<polyline fill="none" stroke="#000000" points="752.4209,-88.5 752.4209,-132.5 "/>
<text text-anchor="middle" x="781.4141" y="-117.3" font-family="Times,serif" font-size="14.00" fill="#000000">process</text>
<polyline fill="none" stroke="#000000" points="752.4209,-110.5 810.4072,-110.5 "/>
<text text-anchor="middle" x="781.4141" y="-95.3" font-family="Times,serif" font-size="14.00" fill="#000000">db</text>
<polyline fill="none" stroke="#000000" points="810.4072,-88.5 810.4072,-132.5 "/>
<text text-anchor="middle" x="846.0107" y="-117.3" font-family="Times,serif" font-size="14.00" fill="#000000">document</text>
<polyline fill="none" stroke="#000000" points="810.4072,-110.5 881.6143,-110.5 "/>
<text text-anchor="middle" x="846.0107" y="-95.3" font-family="Times,serif" font-size="14.00" fill="#000000">{}</text>
<polyline fill="none" stroke="#000000" points="675,-88.5 881.6143,-88.5 "/>
<text text-anchor="middle" x="709.3726" y="-51.3" font-family="Times,serif" font-size="14.00" fill="#000000">balance</text>
<polyline fill="none" stroke="#000000" points="743.7451,-22.5 743.7451,-88.5 "/>
<text text-anchor="middle" x="778.2383" y="-73.3" font-family="Times,serif" font-size="14.00" fill="#000000">process</text>
<polyline fill="none" stroke="#000000" points="743.7451,-66.5 812.7314,-66.5 "/>
<text text-anchor="middle" x="778.2383" y="-51.3" font-family="Times,serif" font-size="14.00" fill="#000000">db</text>
<polyline fill="none" stroke="#000000" points="743.7451,-44.5 812.7314,-44.5 "/>
<text text-anchor="middle" x="778.2383" y="-29.3" font-family="Times,serif" font-size="14.00" fill="#000000">0</text>
<polyline fill="none" stroke="#000000" points="812.7314,-22.5 812.7314,-88.5 "/>
<text text-anchor="middle" x="846.728" y="-73.3" font-family="Times,serif" font-size="14.00" fill="#000000">amount</text>
<polyline fill="none" stroke="#000000" points="812.7314,-66.5 880.7246,-66.5 "/>
<text text-anchor="middle" x="846.728" y="-51.3" font-family="Times,serif" font-size="14.00" fill="#000000">0</text>
<polyline fill="none" stroke="#000000" points="812.7314,-44.5 880.7246,-44.5 "/>
<text text-anchor="middle" x="846.728" y="-29.3" font-family="Times,serif" font-size="14.00" fill="#000000">0</text>
<polyline fill="none" stroke="#000000" points="675,-22.5 881.6143,-22.5 "/>
<text text-anchor="middle" x="753.0054" y="-7.3" font-family="Times,serif" font-size="14.00" fill="#000000">completed transfers</text>
<polyline fill="none" stroke="#000000" points="831.0107,-.5 831.0107,-22.5 "/>
<text text-anchor="middle" x="856.2607" y="-7.3" font-family="Times,serif" font-size="14.00" fill="#000000"> </text>
</g>
<!-- start -->
<g id="node4" class="node">
<title>start</title>
<polygon fill="none" stroke="#000000" points="450,-304.5 450,-414.5 656.6143,-414.5 656.6143,-304.5 450,-304.5"/>
<text text-anchor="middle" x="488.7104" y="-388.3" font-family="Times,serif" font-size="14.00" fill="#000000">accounting</text>
<polyline fill="none" stroke="#000000" points="527.4209,-370.5 527.4209,-414.5 "/>
<text text-anchor="middle" x="556.4141" y="-399.3" font-family="Times,serif" font-size="14.00" fill="#000000">process</text>
<polyline fill="none" stroke="#000000" points="527.4209,-392.5 585.4072,-392.5 "/>
<text text-anchor="middle" x="556.4141" y="-377.3" font-family="Times,serif" font-size="14.00" fill="#000000">db</text>
<polyline fill="none" stroke="#000000" points="585.4072,-370.5 585.4072,-414.5 "/>
<text text-anchor="middle" x="621.0107" y="-399.3" font-family="Times,serif" font-size="14.00" fill="#000000">document</text>
<polyline fill="none" stroke="#000000" points="585.4072,-392.5 656.6143,-392.5 "/>
<text text-anchor="middle" x="621.0107" y="-377.3" font-family="Times,serif" font-size="14.00" fill="#000000">{}</text>
<polyline fill="none" stroke="#000000" points="450,-370.5 656.6143,-370.5 "/>
<text text-anchor="middle" x="484.3726" y="-344.3" font-family="Times,serif" font-size="14.00" fill="#000000">balance</text>
<polyline fill="none" stroke="#000000" points="518.7451,-326.5 518.7451,-370.5 "/>
<text text-anchor="middle" x="553.2383" y="-355.3" font-family="Times,serif" font-size="14.00" fill="#000000">process</text>
<polyline fill="none" stroke="#000000" points="518.7451,-348.5 587.7314,-348.5 "/>
<text text-anchor="middle" x="553.2383" y="-333.3" font-family="Times,serif" font-size="14.00" fill="#000000">db</text>
<polyline fill="none" stroke="#000000" points="587.7314,-326.5 587.7314,-370.5 "/>
<text text-anchor="middle" x="621.728" y="-355.3" font-family="Times,serif" font-size="14.00" fill="#000000">amount</text>
<polyline fill="none" stroke="#000000" points="587.7314,-348.5 655.7246,-348.5 "/>
<text text-anchor="middle" x="621.728" y="-333.3" font-family="Times,serif" font-size="14.00" fill="#000000">0</text>
<polyline fill="none" stroke="#000000" points="450,-326.5 656.6143,-326.5 "/>
<text text-anchor="middle" x="528.0054" y="-311.3" font-family="Times,serif" font-size="14.00" fill="#000000">completed transfers</text>
<polyline fill="none" stroke="#000000" points="606.0107,-304.5 606.0107,-326.5 "/>
<text text-anchor="middle" x="631.2607" y="-311.3" font-family="Times,serif" font-size="14.00" fill="#000000"> </text>
</g>
<!-- start&#45;&gt;7 -->
<g id="edge5" class="edge">
<title>start&#45;&gt;7</title>
<path fill="none" stroke="#000000" d="M509.3632,-304.1778C503.5125,-296.8121 497.4775,-289.2145 491.5303,-281.7274"/>
<polygon fill="#000000" stroke="#000000" points="494.0848,-279.3161 485.1243,-273.6627 488.6036,-283.67 494.0848,-279.3161"/>
<text text-anchor="middle" x="535.1519" y="-284.8" font-family="Times,serif" font-size="14.00" fill="#000000">[&#45;1€ pid=0]</text>
</g>
<!-- 5 -->
<g id="node8" class="node">
<title>5</title>
<polygon fill="none" stroke="#000000" points="787,-163.5 787,-273.5 993.6143,-273.5 993.6143,-163.5 787,-163.5"/>
<text text-anchor="middle" x="825.7104" y="-247.3" font-family="Times,serif" font-size="14.00" fill="#000000">accounting</text>
<polyline fill="none" stroke="#000000" points="864.4209,-229.5 864.4209,-273.5 "/>
<text text-anchor="middle" x="893.4141" y="-258.3" font-family="Times,serif" font-size="14.00" fill="#000000">process</text>
<polyline fill="none" stroke="#000000" points="864.4209,-251.5 922.4072,-251.5 "/>
<text text-anchor="middle" x="893.4141" y="-236.3" font-family="Times,serif" font-size="14.00" fill="#000000">db</text>
<polyline fill="none" stroke="#000000" points="922.4072,-229.5 922.4072,-273.5 "/>
<text text-anchor="middle" x="958.0107" y="-258.3" font-family="Times,serif" font-size="14.00" fill="#000000">document</text>
<polyline fill="none" stroke="#000000" points="922.4072,-251.5 993.6143,-251.5 "/>
<text text-anchor="middle" x="958.0107" y="-236.3" font-family="Times,serif" font-size="14.00" fill="#000000">{}</text>
<polyline fill="none" stroke="#000000" points="787,-229.5 993.6143,-229.5 "/>
<text text-anchor="middle" x="821.3726" y="-203.3" font-family="Times,serif" font-size="14.00" fill="#000000">balance</text>
<polyline fill="none" stroke="#000000" points="855.7451,-185.5 855.7451,-229.5 "/>
<text text-anchor="middle" x="890.2383" y="-214.3" font-family="Times,serif" font-size="14.00" fill="#000000">process</text>
<polyline fill="none" stroke="#000000" points="855.7451,-207.5 924.7314,-207.5 "/>
<text text-anchor="middle" x="890.2383" y="-192.3" font-family="Times,serif" font-size="14.00" fill="#000000">db</text>
<polyline fill="none" stroke="#000000" points="924.7314,-185.5 924.7314,-229.5 "/>
<text text-anchor="middle" x="958.728" y="-214.3" font-family="Times,serif" font-size="14.00" fill="#000000">amount</text>
<polyline fill="none" stroke="#000000" points="924.7314,-207.5 992.7246,-207.5 "/>
<text text-anchor="middle" x="958.728" y="-192.3" font-family="Times,serif" font-size="14.00" fill="#000000">0</text>
<polyline fill="none" stroke="#000000" points="787,-185.5 993.6143,-185.5 "/>
<text text-anchor="middle" x="865.0054" y="-170.3" font-family="Times,serif" font-size="14.00" fill="#000000">completed transfers</text>
<polyline fill="none" stroke="#000000" points="943.0107,-163.5 943.0107,-185.5 "/>
<text text-anchor="middle" x="968.2607" y="-170.3" font-family="Times,serif" font-size="14.00" fill="#000000"> </text>
</g>
<!-- start&#45;&gt;5 -->
<g id="edge4" class="edge">
<title>start&#45;&gt;5</title>
<path fill="none" stroke="#000000" d="M656.7085,-316.2371C694.951,-300.2366 738.48,-282.0241 777.5147,-265.6921"/>
<polygon fill="#000000" stroke="#000000" points="778.937,-268.8911 786.8111,-261.8025 776.2351,-262.4335 778.937,-268.8911"/>
<text text-anchor="middle" x="767.7686" y="-284.8" font-family="Times,serif" font-size="14.00" fill="#000000">[+1€ pid=0]</text>
</g>
<!-- 28 -->
<g id="node6" class="node">
<title>28</title>
<polygon fill="none" stroke="#000000" points="900,-11.5 900,-121.5 1106.6143,-121.5 1106.6143,-11.5 900,-11.5"/>
<text text-anchor="middle" x="938.7104" y="-95.3" font-family="Times,serif" font-size="14.00" fill="#000000">accounting</text>
<polyline fill="none" stroke="#000000" points="977.4209,-77.5 977.4209,-121.5 "/>
<text text-anchor="middle" x="1006.4141" y="-106.3" font-family="Times,serif" font-size="14.00" fill="#000000">process</text>
<polyline fill="none" stroke="#000000" points="977.4209,-99.5 1035.4072,-99.5 "/>
<text text-anchor="middle" x="1006.4141" y="-84.3" font-family="Times,serif" font-size="14.00" fill="#000000">db</text>
<polyline fill="none" stroke="#000000" points="1035.4072,-77.5 1035.4072,-121.5 "/>
<text text-anchor="middle" x="1071.0107" y="-106.3" font-family="Times,serif" font-size="14.00" fill="#000000">document</text>
<polyline fill="none" stroke="#000000" points="1035.4072,-99.5 1106.6143,-99.5 "/>
<text text-anchor="middle" x="1071.0107" y="-84.3" font-family="Times,serif" font-size="14.00" fill="#000000">{}</text>
<polyline fill="none" stroke="#000000" points="900,-77.5 1106.6143,-77.5 "/>
<text text-anchor="middle" x="934.3726" y="-51.3" font-family="Times,serif" font-size="14.00" fill="#000000">balance</text>
<polyline fill="none" stroke="#000000" points="968.7451,-33.5 968.7451,-77.5 "/>
<text text-anchor="middle" x="1003.2383" y="-62.3" font-family="Times,serif" font-size="14.00" fill="#000000">process</text>
<polyline fill="none" stroke="#000000" points="968.7451,-55.5 1037.7314,-55.5 "/>
<text text-anchor="middle" x="1003.2383" y="-40.3" font-family="Times,serif" font-size="14.00" fill="#000000">db</text>
<polyline fill="none" stroke="#000000" points="1037.7314,-33.5 1037.7314,-77.5 "/>
<text text-anchor="middle" x="1071.728" y="-62.3" font-family="Times,serif" font-size="14.00" fill="#000000">amount</text>
<polyline fill="none" stroke="#000000" points="1037.7314,-55.5 1105.7246,-55.5 "/>
<text text-anchor="middle" x="1071.728" y="-40.3" font-family="Times,serif" font-size="14.00" fill="#000000">0</text>
<polyline fill="none" stroke="#000000" points="900,-33.5 1106.6143,-33.5 "/>
<text text-anchor="middle" x="978.0054" y="-18.3" font-family="Times,serif" font-size="14.00" fill="#000000">completed transfers</text>
<polyline fill="none" stroke="#000000" points="1056.0107,-11.5 1056.0107,-33.5 "/>
<text text-anchor="middle" x="1081.2607" y="-18.3" font-family="Times,serif" font-size="14.00" fill="#000000"> </text>
</g>
<!-- 5&#45;&gt;4 -->
<g id="edge8" class="edge">
<title>5&#45;&gt;4</title>
<path fill="none" stroke="#000000" d="M849.5557,-163.1945C844.1817,-155.9011 838.6048,-148.3325 833.0445,-140.7864"/>
<polygon fill="#000000" stroke="#000000" points="835.7776,-138.5954 827.0279,-132.6211 830.1422,-142.7479 835.7776,-138.5954"/>
<text text-anchor="middle" x="873.4497" y="-143.8" font-family="Times,serif" font-size="14.00" fill="#000000">[BR pid=0]</text>
</g>
<!-- 5&#45;&gt;28 -->
<g id="edge6" class="edge">
<title>5&#45;&gt;28</title>
<path fill="none" stroke="#000000" d="M931.4224,-163.1945C939.5471,-152.2657 948.1312,-140.7189 956.43,-129.556"/>
<polygon fill="#000000" stroke="#000000" points="959.2544,-131.6232 962.4117,-121.5098 953.6366,-127.4469 959.2544,-131.6232"/>
<text text-anchor="middle" x="981.1519" y="-143.8" font-family="Times,serif" font-size="14.00" fill="#000000">[&#45;1€ pid=1]</text>
</g>
<!-- 16 -->
<g id="node9" class="node">
<title>16</title>
<polygon fill="none" stroke="#000000" points="1125,-11.5 1125,-121.5 1331.6143,-121.5 1331.6143,-11.5 1125,-11.5"/>
<text text-anchor="middle" x="1163.7104" y="-95.3" font-family="Times,serif" font-size="14.00" fill="#000000">accounting</text>
<polyline fill="none" stroke="#000000" points="1202.4209,-77.5 1202.4209,-121.5 "/>
<text text-anchor="middle" x="1231.4141" y="-106.3" font-family="Times,serif" font-size="14.00" fill="#000000">process</text>
<polyline fill="none" stroke="#000000" points="1202.4209,-99.5 1260.4072,-99.5 "/>
<text text-anchor="middle" x="1231.4141" y="-84.3" font-family="Times,serif" font-size="14.00" fill="#000000">db</text>
<polyline fill="none" stroke="#000000" points="1260.4072,-77.5 1260.4072,-121.5 "/>
<text text-anchor="middle" x="1296.0107" y="-106.3" font-family="Times,serif" font-size="14.00" fill="#000000">document</text>
<polyline fill="none" stroke="#000000" points="1260.4072,-99.5 1331.6143,-99.5 "/>
<text text-anchor="middle" x="1296.0107" y="-84.3" font-family="Times,serif" font-size="14.00" fill="#000000">{}</text>
<polyline fill="none" stroke="#000000" points="1125,-77.5 1331.6143,-77.5 "/>
<text text-anchor="middle" x="1159.3726" y="-51.3" font-family="Times,serif" font-size="14.00" fill="#000000">balance</text>
<polyline fill="none" stroke="#000000" points="1193.7451,-33.5 1193.7451,-77.5 "/>
<text text-anchor="middle" x="1228.2383" y="-62.3" font-family="Times,serif" font-size="14.00" fill="#000000">process</text>
<polyline fill="none" stroke="#000000" points="1193.7451,-55.5 1262.7314,-55.5 "/>
<text text-anchor="middle" x="1228.2383" y="-40.3" font-family="Times,serif" font-size="14.00" fill="#000000">db</text>
<polyline fill="none" stroke="#000000" points="1262.7314,-33.5 1262.7314,-77.5 "/>
<text text-anchor="middle" x="1296.728" y="-62.3" font-family="Times,serif" font-size="14.00" fill="#000000">amount</text>
<polyline fill="none" stroke="#000000" points="1262.7314,-55.5 1330.7246,-55.5 "/>
<text text-anchor="middle" x="1296.728" y="-40.3" font-family="Times,serif" font-size="14.00" fill="#000000">0</text>
<polyline fill="none" stroke="#000000" points="1125,-33.5 1331.6143,-33.5 "/>
<text text-anchor="middle" x="1203.0054" y="-18.3" font-family="Times,serif" font-size="14.00" fill="#000000">completed transfers</text>
<polyline fill="none" stroke="#000000" points="1281.0107,-11.5 1281.0107,-33.5 "/>
<text text-anchor="middle" x="1306.2607" y="-18.3" font-family="Times,serif" font-size="14.00" fill="#000000"> </text>
</g>
<!-- 5&#45;&gt;16 -->
<g id="edge7" class="edge">
<title>5&#45;&gt;16</title>
<path fill="none" stroke="#000000" d="M993.767,-183.3439C1032.5028,-169.1045 1076.5046,-151.6258 1115.3071,-133 1119.6936,-130.8944 1124.1353,-128.6769 1128.5925,-126.3807"/>
<polygon fill="#000000" stroke="#000000" points="1130.5267,-129.3182 1137.7505,-121.5678 1127.2702,-123.1218 1130.5267,-129.3182"/>
<text text-anchor="middle" x="1133.7686" y="-143.8" font-family="Times,serif" font-size="14.00" fill="#000000">[+1€ pid=1]</text>
</g>
</g>
</svg>
