<?xml version="1.0" encoding="UTF-8" standalone="no"?>
<!DOCTYPE svg PUBLIC "-//W3C//DTD SVG 1.1//EN"
 "http://www.w3.org/Graphics/SVG/1.1/DTD/svg11.dtd">
<!-- Generated by graphviz version 2.40.1 (20161225.0304)
 -->
<!-- Title: G Pages: 1 -->
<svg width="1374pt" height="533pt"
 viewBox="0.00 0.00 1374.40 533.00" xmlns="http://www.w3.org/2000/svg" xmlns:xlink="http://www.w3.org/1999/xlink">
<g id="graph0" class="graph" transform="scale(1 1) rotate(0) translate(4 529)">
<title>G</title>
<polygon fill="#ffffff" stroke="transparent" points="-4,4 -4,-529 1370.4004,-529 1370.4004,4 -4,4"/>
<!-- 27 -->
<g id="node1" class="node">
<title>27</title>
<polygon fill="none" stroke="#000000" points="458,-185.5 458,-339.5 674.4004,-339.5 674.4004,-185.5 458,-185.5"/>
<text text-anchor="middle" x="511.4771" y="-324.3" font-family="Times,serif" font-size="14.00" fill="#000000">buffer</text>
<polyline fill="none" stroke="#000000" points="564.9541,-317.5 564.9541,-339.5 "/>
<text text-anchor="middle" x="619.4507" y="-324.3" font-family="Times,serif" font-size="14.00" fill="#000000">empty</text>
<polyline fill="none" stroke="#000000" points="458,-317.5 674.4004,-317.5 "/>
<text text-anchor="middle" x="486.2139" y="-280.3" font-family="Times,serif" font-size="14.00" fill="#000000">threads</text>
<polyline fill="none" stroke="#000000" points="514.4277,-251.5 514.4277,-317.5 "/>
<text text-anchor="middle" x="527.8726" y="-302.3" font-family="Times,serif" font-size="14.00" fill="#000000">id</text>
<polyline fill="none" stroke="#000000" points="514.4277,-295.5 541.3174,-295.5 "/>
<text text-anchor="middle" x="527.8726" y="-280.3" font-family="Times,serif" font-size="14.00" fill="#000000">0</text>
<polyline fill="none" stroke="#000000" points="514.4277,-273.5 541.3174,-273.5 "/>
<text text-anchor="middle" x="527.8726" y="-258.3" font-family="Times,serif" font-size="14.00" fill="#000000">1</text>
<polyline fill="none" stroke="#000000" points="541.3174,-251.5 541.3174,-317.5 "/>
<text text-anchor="middle" x="576.5313" y="-302.3" font-family="Times,serif" font-size="14.00" fill="#000000">kind</text>
<polyline fill="none" stroke="#000000" points="541.3174,-295.5 611.7451,-295.5 "/>
<text text-anchor="middle" x="576.5313" y="-280.3" font-family="Times,serif" font-size="14.00" fill="#000000">consumer</text>
<polyline fill="none" stroke="#000000" points="541.3174,-273.5 611.7451,-273.5 "/>
<text text-anchor="middle" x="576.5313" y="-258.3" font-family="Times,serif" font-size="14.00" fill="#000000">producer</text>
<polyline fill="none" stroke="#000000" points="611.7451,-251.5 611.7451,-317.5 "/>
<text text-anchor="middle" x="643.0728" y="-302.3" font-family="Times,serif" font-size="14.00" fill="#000000">state</text>
<polyline fill="none" stroke="#000000" points="611.7451,-295.5 674.4004,-295.5 "/>
<text text-anchor="middle" x="643.0728" y="-280.3" font-family="Times,serif" font-size="14.00" fill="#000000">sleeping</text>
<polyline fill="none" stroke="#000000" points="611.7451,-273.5 674.4004,-273.5 "/>
<text text-anchor="middle" x="643.0728" y="-258.3" font-family="Times,serif" font-size="14.00" fill="#000000">awake</text>
<polyline fill="none" stroke="#000000" points="458,-251.5 674.4004,-251.5 "/>
<text text-anchor="middle" x="522.7656" y="-236.3" font-family="Times,serif" font-size="14.00" fill="#000000">occupied</text>
<polyline fill="none" stroke="#000000" points="587.5313,-229.5 587.5313,-251.5 "/>
<text text-anchor="middle" x="630.5313" y="-236.3" font-family="Times,serif" font-size="14.00" fill="#000000">0</text>
<polyline fill="none" stroke="#000000" points="458,-229.5 674.4004,-229.5 "/>
<text text-anchor="middle" x="518.3276" y="-214.3" font-family="Times,serif" font-size="14.00" fill="#000000">put&#45;at</text>
<polyline fill="none" stroke="#000000" points="578.6553,-207.5 578.6553,-229.5 "/>
<text text-anchor="middle" x="626.1553" y="-214.3" font-family="Times,serif" font-size="14.00" fill="#000000">0</text>
<polyline fill="none" stroke="#000000" points="458,-207.5 674.4004,-207.5 "/>
<text text-anchor="middle" x="519.5415" y="-192.3" font-family="Times,serif" font-size="14.00" fill="#000000">take&#45;at</text>
<polyline fill="none" stroke="#000000" points="581.083,-185.5 581.083,-207.5 "/>
<text text-anchor="middle" x="627.583" y="-192.3" font-family="Times,serif" font-size="14.00" fill="#000000">0</text>
</g>
<!-- 1632 -->
<g id="node2" class="node">
<title>1632</title>
<polygon fill="none" stroke="#000000" points="0,-.5 0,-154.5 216.4004,-154.5 216.4004,-.5 0,-.5"/>
<text text-anchor="middle" x="53.4771" y="-139.3" font-family="Times,serif" font-size="14.00" fill="#000000">buffer</text>
<polyline fill="none" stroke="#000000" points="106.9541,-132.5 106.9541,-154.5 "/>
<text text-anchor="middle" x="161.4507" y="-139.3" font-family="Times,serif" font-size="14.00" fill="#000000">empty</text>
<polyline fill="none" stroke="#000000" points="0,-132.5 216.4004,-132.5 "/>
<text text-anchor="middle" x="28.2139" y="-95.3" font-family="Times,serif" font-size="14.00" fill="#000000">threads</text>
<polyline fill="none" stroke="#000000" points="56.4277,-66.5 56.4277,-132.5 "/>
<text text-anchor="middle" x="69.8726" y="-117.3" font-family="Times,serif" font-size="14.00" fill="#000000">id</text>
<polyline fill="none" stroke="#000000" points="56.4277,-110.5 83.3174,-110.5 "/>
<text text-anchor="middle" x="69.8726" y="-95.3" font-family="Times,serif" font-size="14.00" fill="#000000">0</text>
<polyline fill="none" stroke="#000000" points="56.4277,-88.5 83.3174,-88.5 "/>
<text text-anchor="middle" x="69.8726" y="-73.3" font-family="Times,serif" font-size="14.00" fill="#000000">1</text>
<polyline fill="none" stroke="#000000" points="83.3174,-66.5 83.3174,-132.5 "/>
<text text-anchor="middle" x="118.5313" y="-117.3" font-family="Times,serif" font-size="14.00" fill="#000000">kind</text>
<polyline fill="none" stroke="#000000" points="83.3174,-110.5 153.7451,-110.5 "/>
<text text-anchor="middle" x="118.5313" y="-95.3" font-family="Times,serif" font-size="14.00" fill="#000000">consumer</text>
<polyline fill="none" stroke="#000000" points="83.3174,-88.5 153.7451,-88.5 "/>
<text text-anchor="middle" x="118.5313" y="-73.3" font-family="Times,serif" font-size="14.00" fill="#000000">producer</text>
<polyline fill="none" stroke="#000000" points="153.7451,-66.5 153.7451,-132.5 "/>
<text text-anchor="middle" x="185.0728" y="-117.3" font-family="Times,serif" font-size="14.00" fill="#000000">state</text>
<polyline fill="none" stroke="#000000" points="153.7451,-110.5 216.4004,-110.5 "/>
<text text-anchor="middle" x="185.0728" y="-95.3" font-family="Times,serif" font-size="14.00" fill="#000000">sleeping</text>
<polyline fill="none" stroke="#000000" points="153.7451,-88.5 216.4004,-88.5 "/>
<text text-anchor="middle" x="185.0728" y="-73.3" font-family="Times,serif" font-size="14.00" fill="#000000">awake</text>
<polyline fill="none" stroke="#000000" points="0,-66.5 216.4004,-66.5 "/>
<text text-anchor="middle" x="64.7656" y="-51.3" font-family="Times,serif" font-size="14.00" fill="#000000">occupied</text>
<polyline fill="none" stroke="#000000" points="129.5313,-44.5 129.5313,-66.5 "/>
<text text-anchor="middle" x="172.5313" y="-51.3" font-family="Times,serif" font-size="14.00" fill="#000000">0</text>
<polyline fill="none" stroke="#000000" points="0,-44.5 216.4004,-44.5 "/>
<text text-anchor="middle" x="60.3276" y="-29.3" font-family="Times,serif" font-size="14.00" fill="#000000">put&#45;at</text>
<polyline fill="none" stroke="#000000" points="120.6553,-22.5 120.6553,-44.5 "/>
<text text-anchor="middle" x="168.1553" y="-29.3" font-family="Times,serif" font-size="14.00" fill="#000000">0</text>
<polyline fill="none" stroke="#000000" points="0,-22.5 216.4004,-22.5 "/>
<text text-anchor="middle" x="61.5415" y="-7.3" font-family="Times,serif" font-size="14.00" fill="#000000">take&#45;at</text>
<polyline fill="none" stroke="#000000" points="123.083,-.5 123.083,-22.5 "/>
<text text-anchor="middle" x="169.583" y="-7.3" font-family="Times,serif" font-size="14.00" fill="#000000">0</text>
</g>
<!-- 27&#45;&gt;1632 -->
<g id="edge3" class="edge">
<title>27&#45;&gt;1632</title>
<path fill="none" stroke="#000000" d="M457.673,-236.6237C391.7169,-218.9647 306.4511,-192.6607 225.8906,-155.1238"/>
<polygon fill="#000000" stroke="#000000" points="227.1355,-151.8411 216.5987,-150.7337 224.1451,-158.1702 227.1355,-151.8411"/>
<text text-anchor="middle" x="302.1445" y="-165.8" font-family="Times,serif" font-size="14.00" fill="#000000">0&#45;&gt;notify:0</text>
</g>
<!-- 1624 -->
<g id="node4" class="node">
<title>1624</title>
<polygon fill="none" stroke="#000000" points="234.4517,-.5 234.4517,-154.5 439.9487,-154.5 439.9487,-.5 234.4517,-.5"/>
<text text-anchor="middle" x="289.4287" y="-139.3" font-family="Times,serif" font-size="14.00" fill="#000000">buffer</text>
<polyline fill="none" stroke="#000000" points="344.4058,-132.5 344.4058,-154.5 "/>
<text text-anchor="middle" x="392.1265" y="-139.3" font-family="Times,serif" font-size="14.00" fill="#000000">full</text>
<polyline fill="none" stroke="#000000" points="234.4517,-132.5 439.9487,-132.5 "/>
<text text-anchor="middle" x="262.6655" y="-95.3" font-family="Times,serif" font-size="14.00" fill="#000000">threads</text>
<polyline fill="none" stroke="#000000" points="290.8794,-66.5 290.8794,-132.5 "/>
<text text-anchor="middle" x="304.3242" y="-117.3" font-family="Times,serif" font-size="14.00" fill="#000000">id</text>
<polyline fill="none" stroke="#000000" points="290.8794,-110.5 317.769,-110.5 "/>
<text text-anchor="middle" x="304.3242" y="-95.3" font-family="Times,serif" font-size="14.00" fill="#000000">0</text>
<polyline fill="none" stroke="#000000" points="290.8794,-88.5 317.769,-88.5 "/>
<text text-anchor="middle" x="304.3242" y="-73.3" font-family="Times,serif" font-size="14.00" fill="#000000">1</text>
<polyline fill="none" stroke="#000000" points="317.769,-66.5 317.769,-132.5 "/>
<text text-anchor="middle" x="352.9829" y="-117.3" font-family="Times,serif" font-size="14.00" fill="#000000">kind</text>
<polyline fill="none" stroke="#000000" points="317.769,-110.5 388.1968,-110.5 "/>
<text text-anchor="middle" x="352.9829" y="-95.3" font-family="Times,serif" font-size="14.00" fill="#000000">consumer</text>
<polyline fill="none" stroke="#000000" points="317.769,-88.5 388.1968,-88.5 "/>
<text text-anchor="middle" x="352.9829" y="-73.3" font-family="Times,serif" font-size="14.00" fill="#000000">producer</text>
<polyline fill="none" stroke="#000000" points="388.1968,-66.5 388.1968,-132.5 "/>
<text text-anchor="middle" x="414.0728" y="-117.3" font-family="Times,serif" font-size="14.00" fill="#000000">state</text>
<polyline fill="none" stroke="#000000" points="388.1968,-110.5 439.9487,-110.5 "/>
<text text-anchor="middle" x="414.0728" y="-95.3" font-family="Times,serif" font-size="14.00" fill="#000000">awake</text>
<polyline fill="none" stroke="#000000" points="388.1968,-88.5 439.9487,-88.5 "/>
<text text-anchor="middle" x="414.0728" y="-73.3" font-family="Times,serif" font-size="14.00" fill="#000000">awake</text>
<polyline fill="none" stroke="#000000" points="234.4517,-66.5 439.9487,-66.5 "/>
<text text-anchor="middle" x="296.2173" y="-51.3" font-family="Times,serif" font-size="14.00" fill="#000000">occupied</text>
<polyline fill="none" stroke="#000000" points="357.9829,-44.5 357.9829,-66.5 "/>
<text text-anchor="middle" x="398.4829" y="-51.3" font-family="Times,serif" font-size="14.00" fill="#000000">1</text>
<polyline fill="none" stroke="#000000" points="234.4517,-44.5 439.9487,-44.5 "/>
<text text-anchor="middle" x="291.7793" y="-29.3" font-family="Times,serif" font-size="14.00" fill="#000000">put&#45;at</text>
<polyline fill="none" stroke="#000000" points="349.1069,-22.5 349.1069,-44.5 "/>
<text text-anchor="middle" x="394.1069" y="-29.3" font-family="Times,serif" font-size="14.00" fill="#000000">1</text>
<polyline fill="none" stroke="#000000" points="234.4517,-22.5 439.9487,-22.5 "/>
<text text-anchor="middle" x="293.4932" y="-7.3" font-family="Times,serif" font-size="14.00" fill="#000000">take&#45;at</text>
<polyline fill="none" stroke="#000000" points="352.5347,-.5 352.5347,-22.5 "/>
<text text-anchor="middle" x="396.0347" y="-7.3" font-family="Times,serif" font-size="14.00" fill="#000000">0</text>
</g>
<!-- 27&#45;&gt;1624 -->
<g id="edge1" class="edge">
<title>27&#45;&gt;1624</title>
<path fill="none" stroke="#000000" d="M470.7418,-185.383C460.8644,-177.4034 450.7925,-169.2667 440.8313,-161.2194"/>
<polygon fill="#000000" stroke="#000000" points="442.8504,-158.3512 432.8721,-154.7896 438.4515,-163.7963 442.8504,-158.3512"/>
<text text-anchor="middle" x="491.1445" y="-165.8" font-family="Times,serif" font-size="14.00" fill="#000000">1&#45;&gt;notify:0</text>
</g>
<!-- 44 -->
<g id="node5" class="node">
<title>44</title>
<polygon fill="none" stroke="#000000" points="458,-.5 458,-154.5 674.4004,-154.5 674.4004,-.5 458,-.5"/>
<text text-anchor="middle" x="511.4771" y="-139.3" font-family="Times,serif" font-size="14.00" fill="#000000">buffer</text>
<polyline fill="none" stroke="#000000" points="564.9541,-132.5 564.9541,-154.5 "/>
<text text-anchor="middle" x="619.4507" y="-139.3" font-family="Times,serif" font-size="14.00" fill="#000000">empty</text>
<polyline fill="none" stroke="#000000" points="458,-132.5 674.4004,-132.5 "/>
<text text-anchor="middle" x="486.2139" y="-95.3" font-family="Times,serif" font-size="14.00" fill="#000000">threads</text>
<polyline fill="none" stroke="#000000" points="514.4277,-66.5 514.4277,-132.5 "/>
<text text-anchor="middle" x="527.8726" y="-117.3" font-family="Times,serif" font-size="14.00" fill="#000000">id</text>
<polyline fill="none" stroke="#000000" points="514.4277,-110.5 541.3174,-110.5 "/>
<text text-anchor="middle" x="527.8726" y="-95.3" font-family="Times,serif" font-size="14.00" fill="#000000">0</text>
<polyline fill="none" stroke="#000000" points="514.4277,-88.5 541.3174,-88.5 "/>
<text text-anchor="middle" x="527.8726" y="-73.3" font-family="Times,serif" font-size="14.00" fill="#000000">1</text>
<polyline fill="none" stroke="#000000" points="541.3174,-66.5 541.3174,-132.5 "/>
<text text-anchor="middle" x="576.5313" y="-117.3" font-family="Times,serif" font-size="14.00" fill="#000000">kind</text>
<polyline fill="none" stroke="#000000" points="541.3174,-110.5 611.7451,-110.5 "/>
<text text-anchor="middle" x="576.5313" y="-95.3" font-family="Times,serif" font-size="14.00" fill="#000000">consumer</text>
<polyline fill="none" stroke="#000000" points="541.3174,-88.5 611.7451,-88.5 "/>
<text text-anchor="middle" x="576.5313" y="-73.3" font-family="Times,serif" font-size="14.00" fill="#000000">producer</text>
<polyline fill="none" stroke="#000000" points="611.7451,-66.5 611.7451,-132.5 "/>
<text text-anchor="middle" x="643.0728" y="-117.3" font-family="Times,serif" font-size="14.00" fill="#000000">state</text>
<polyline fill="none" stroke="#000000" points="611.7451,-110.5 674.4004,-110.5 "/>
<text text-anchor="middle" x="643.0728" y="-95.3" font-family="Times,serif" font-size="14.00" fill="#000000">sleeping</text>
<polyline fill="none" stroke="#000000" points="611.7451,-88.5 674.4004,-88.5 "/>
<text text-anchor="middle" x="643.0728" y="-73.3" font-family="Times,serif" font-size="14.00" fill="#000000">awake</text>
<polyline fill="none" stroke="#000000" points="458,-66.5 674.4004,-66.5 "/>
<text text-anchor="middle" x="522.7656" y="-51.3" font-family="Times,serif" font-size="14.00" fill="#000000">occupied</text>
<polyline fill="none" stroke="#000000" points="587.5313,-44.5 587.5313,-66.5 "/>
<text text-anchor="middle" x="630.5313" y="-51.3" font-family="Times,serif" font-size="14.00" fill="#000000">0</text>
<polyline fill="none" stroke="#000000" points="458,-44.5 674.4004,-44.5 "/>
<text text-anchor="middle" x="518.3276" y="-29.3" font-family="Times,serif" font-size="14.00" fill="#000000">put&#45;at</text>
<polyline fill="none" stroke="#000000" points="578.6553,-22.5 578.6553,-44.5 "/>
<text text-anchor="middle" x="626.1553" y="-29.3" font-family="Times,serif" font-size="14.00" fill="#000000">0</text>
<polyline fill="none" stroke="#000000" points="458,-22.5 674.4004,-22.5 "/>
<text text-anchor="middle" x="519.5415" y="-7.3" font-family="Times,serif" font-size="14.00" fill="#000000">take&#45;at</text>
<polyline fill="none" stroke="#000000" points="581.083,-.5 581.083,-22.5 "/>
<text text-anchor="middle" x="627.583" y="-7.3" font-family="Times,serif" font-size="14.00" fill="#000000">0</text>
</g>
<!-- 27&#45;&gt;44 -->
<g id="edge4" class="edge">
<title>27&#45;&gt;44</title>
<path fill="none" stroke="#000000" d="M566.2002,-185.383C566.2002,-178.5885 566.2002,-171.6801 566.2002,-164.8099"/>
<polygon fill="#000000" stroke="#000000" points="569.7003,-164.7895 566.2002,-154.7896 562.7003,-164.7896 569.7003,-164.7895"/>
<text text-anchor="middle" x="569.7002" y="-165.8" font-family="Times,serif" font-size="14.00" fill="#000000">0</text>
</g>
<!-- 1628 -->
<g id="node7" class="node">
<title>1628</title>
<polygon fill="none" stroke="#000000" points="692,-.5 692,-154.5 908.4004,-154.5 908.4004,-.5 692,-.5"/>
<text text-anchor="middle" x="749.4771" y="-139.3" font-family="Times,serif" font-size="14.00" fill="#000000">buffer</text>
<polyline fill="none" stroke="#000000" points="806.9541,-132.5 806.9541,-154.5 "/>
<text text-anchor="middle" x="857.6748" y="-139.3" font-family="Times,serif" font-size="14.00" fill="#000000">full</text>
<polyline fill="none" stroke="#000000" points="692,-132.5 908.4004,-132.5 "/>
<text text-anchor="middle" x="720.2139" y="-95.3" font-family="Times,serif" font-size="14.00" fill="#000000">threads</text>
<polyline fill="none" stroke="#000000" points="748.4277,-66.5 748.4277,-132.5 "/>
<text text-anchor="middle" x="761.8726" y="-117.3" font-family="Times,serif" font-size="14.00" fill="#000000">id</text>
<polyline fill="none" stroke="#000000" points="748.4277,-110.5 775.3174,-110.5 "/>
<text text-anchor="middle" x="761.8726" y="-95.3" font-family="Times,serif" font-size="14.00" fill="#000000">0</text>
<polyline fill="none" stroke="#000000" points="748.4277,-88.5 775.3174,-88.5 "/>
<text text-anchor="middle" x="761.8726" y="-73.3" font-family="Times,serif" font-size="14.00" fill="#000000">1</text>
<polyline fill="none" stroke="#000000" points="775.3174,-66.5 775.3174,-132.5 "/>
<text text-anchor="middle" x="810.5313" y="-117.3" font-family="Times,serif" font-size="14.00" fill="#000000">kind</text>
<polyline fill="none" stroke="#000000" points="775.3174,-110.5 845.7451,-110.5 "/>
<text text-anchor="middle" x="810.5313" y="-95.3" font-family="Times,serif" font-size="14.00" fill="#000000">consumer</text>
<polyline fill="none" stroke="#000000" points="775.3174,-88.5 845.7451,-88.5 "/>
<text text-anchor="middle" x="810.5313" y="-73.3" font-family="Times,serif" font-size="14.00" fill="#000000">producer</text>
<polyline fill="none" stroke="#000000" points="845.7451,-66.5 845.7451,-132.5 "/>
<text text-anchor="middle" x="877.0728" y="-117.3" font-family="Times,serif" font-size="14.00" fill="#000000">state</text>
<polyline fill="none" stroke="#000000" points="845.7451,-110.5 908.4004,-110.5 "/>
<text text-anchor="middle" x="877.0728" y="-95.3" font-family="Times,serif" font-size="14.00" fill="#000000">sleeping</text>
<polyline fill="none" stroke="#000000" points="845.7451,-88.5 908.4004,-88.5 "/>
<text text-anchor="middle" x="877.0728" y="-73.3" font-family="Times,serif" font-size="14.00" fill="#000000">awake</text>
<polyline fill="none" stroke="#000000" points="692,-66.5 908.4004,-66.5 "/>
<text text-anchor="middle" x="756.7656" y="-51.3" font-family="Times,serif" font-size="14.00" fill="#000000">occupied</text>
<polyline fill="none" stroke="#000000" points="821.5313,-44.5 821.5313,-66.5 "/>
<text text-anchor="middle" x="864.5313" y="-51.3" font-family="Times,serif" font-size="14.00" fill="#000000">1</text>
<polyline fill="none" stroke="#000000" points="692,-44.5 908.4004,-44.5 "/>
<text text-anchor="middle" x="752.3276" y="-29.3" font-family="Times,serif" font-size="14.00" fill="#000000">put&#45;at</text>
<polyline fill="none" stroke="#000000" points="812.6553,-22.5 812.6553,-44.5 "/>
<text text-anchor="middle" x="860.1553" y="-29.3" font-family="Times,serif" font-size="14.00" fill="#000000">1</text>
<polyline fill="none" stroke="#000000" points="692,-22.5 908.4004,-22.5 "/>
<text text-anchor="middle" x="753.5415" y="-7.3" font-family="Times,serif" font-size="14.00" fill="#000000">take&#45;at</text>
<polyline fill="none" stroke="#000000" points="815.083,-.5 815.083,-22.5 "/>
<text text-anchor="middle" x="861.583" y="-7.3" font-family="Times,serif" font-size="14.00" fill="#000000">0</text>
</g>
<!-- 27&#45;&gt;1628 -->
<g id="edge2" class="edge">
<title>27&#45;&gt;1628</title>
<path fill="none" stroke="#000000" d="M663.7428,-185.383C673.8359,-177.4034 684.1277,-169.2667 694.3064,-161.2194"/>
<polygon fill="#000000" stroke="#000000" points="696.7655,-163.7371 702.4393,-154.7896 692.4241,-158.2459 696.7655,-163.7371"/>
<text text-anchor="middle" x="694.7002" y="-165.8" font-family="Times,serif" font-size="14.00" fill="#000000">1</text>
</g>
<!-- 1625 -->
<g id="node3" class="node">
<title>1625</title>
<polygon fill="none" stroke="#000000" points="926.4517,-.5 926.4517,-154.5 1131.9487,-154.5 1131.9487,-.5 926.4517,-.5"/>
<text text-anchor="middle" x="981.4287" y="-139.3" font-family="Times,serif" font-size="14.00" fill="#000000">buffer</text>
<polyline fill="none" stroke="#000000" points="1036.4058,-132.5 1036.4058,-154.5 "/>
<text text-anchor="middle" x="1084.1265" y="-139.3" font-family="Times,serif" font-size="14.00" fill="#000000">full</text>
<polyline fill="none" stroke="#000000" points="926.4517,-132.5 1131.9487,-132.5 "/>
<text text-anchor="middle" x="954.6655" y="-95.3" font-family="Times,serif" font-size="14.00" fill="#000000">threads</text>
<polyline fill="none" stroke="#000000" points="982.8794,-66.5 982.8794,-132.5 "/>
<text text-anchor="middle" x="996.3242" y="-117.3" font-family="Times,serif" font-size="14.00" fill="#000000">id</text>
<polyline fill="none" stroke="#000000" points="982.8794,-110.5 1009.769,-110.5 "/>
<text text-anchor="middle" x="996.3242" y="-95.3" font-family="Times,serif" font-size="14.00" fill="#000000">0</text>
<polyline fill="none" stroke="#000000" points="982.8794,-88.5 1009.769,-88.5 "/>
<text text-anchor="middle" x="996.3242" y="-73.3" font-family="Times,serif" font-size="14.00" fill="#000000">1</text>
<polyline fill="none" stroke="#000000" points="1009.769,-66.5 1009.769,-132.5 "/>
<text text-anchor="middle" x="1044.9829" y="-117.3" font-family="Times,serif" font-size="14.00" fill="#000000">kind</text>
<polyline fill="none" stroke="#000000" points="1009.769,-110.5 1080.1968,-110.5 "/>
<text text-anchor="middle" x="1044.9829" y="-95.3" font-family="Times,serif" font-size="14.00" fill="#000000">consumer</text>
<polyline fill="none" stroke="#000000" points="1009.769,-88.5 1080.1968,-88.5 "/>
<text text-anchor="middle" x="1044.9829" y="-73.3" font-family="Times,serif" font-size="14.00" fill="#000000">producer</text>
<polyline fill="none" stroke="#000000" points="1080.1968,-66.5 1080.1968,-132.5 "/>
<text text-anchor="middle" x="1106.0728" y="-117.3" font-family="Times,serif" font-size="14.00" fill="#000000">state</text>
<polyline fill="none" stroke="#000000" points="1080.1968,-110.5 1131.9487,-110.5 "/>
<text text-anchor="middle" x="1106.0728" y="-95.3" font-family="Times,serif" font-size="14.00" fill="#000000">awake</text>
<polyline fill="none" stroke="#000000" points="1080.1968,-88.5 1131.9487,-88.5 "/>
<text text-anchor="middle" x="1106.0728" y="-73.3" font-family="Times,serif" font-size="14.00" fill="#000000">awake</text>
<polyline fill="none" stroke="#000000" points="926.4517,-66.5 1131.9487,-66.5 "/>
<text text-anchor="middle" x="988.2173" y="-51.3" font-family="Times,serif" font-size="14.00" fill="#000000">occupied</text>
<polyline fill="none" stroke="#000000" points="1049.9829,-44.5 1049.9829,-66.5 "/>
<text text-anchor="middle" x="1090.4829" y="-51.3" font-family="Times,serif" font-size="14.00" fill="#000000">0</text>
<polyline fill="none" stroke="#000000" points="926.4517,-44.5 1131.9487,-44.5 "/>
<text text-anchor="middle" x="983.7793" y="-29.3" font-family="Times,serif" font-size="14.00" fill="#000000">put&#45;at</text>
<polyline fill="none" stroke="#000000" points="1041.1069,-22.5 1041.1069,-44.5 "/>
<text text-anchor="middle" x="1086.1069" y="-29.3" font-family="Times,serif" font-size="14.00" fill="#000000">1</text>
<polyline fill="none" stroke="#000000" points="926.4517,-22.5 1131.9487,-22.5 "/>
<text text-anchor="middle" x="985.4932" y="-7.3" font-family="Times,serif" font-size="14.00" fill="#000000">take&#45;at</text>
<polyline fill="none" stroke="#000000" points="1044.5347,-.5 1044.5347,-22.5 "/>
<text text-anchor="middle" x="1088.0347" y="-7.3" font-family="Times,serif" font-size="14.00" fill="#000000">1</text>
</g>
<!-- start -->
<g id="node6" class="node">
<title>start</title>
<polygon fill="none" stroke="#000000" points="694.4517,-370.5 694.4517,-524.5 899.9487,-524.5 899.9487,-370.5 694.4517,-370.5"/>
<text text-anchor="middle" x="745.4287" y="-509.3" font-family="Times,serif" font-size="14.00" fill="#000000">buffer</text>
<polyline fill="none" stroke="#000000" points="796.4058,-502.5 796.4058,-524.5 "/>
<text text-anchor="middle" x="847.9023" y="-509.3" font-family="Times,serif" font-size="14.00" fill="#000000">empty</text>
<polyline fill="none" stroke="#000000" points="694.4517,-502.5 899.9487,-502.5 "/>
<text text-anchor="middle" x="722.6655" y="-465.3" font-family="Times,serif" font-size="14.00" fill="#000000">threads</text>
<polyline fill="none" stroke="#000000" points="750.8794,-436.5 750.8794,-502.5 "/>
<text text-anchor="middle" x="764.3242" y="-487.3" font-family="Times,serif" font-size="14.00" fill="#000000">id</text>
<polyline fill="none" stroke="#000000" points="750.8794,-480.5 777.769,-480.5 "/>
<text text-anchor="middle" x="764.3242" y="-465.3" font-family="Times,serif" font-size="14.00" fill="#000000">0</text>
<polyline fill="none" stroke="#000000" points="750.8794,-458.5 777.769,-458.5 "/>
<text text-anchor="middle" x="764.3242" y="-443.3" font-family="Times,serif" font-size="14.00" fill="#000000">1</text>
<polyline fill="none" stroke="#000000" points="777.769,-436.5 777.769,-502.5 "/>
<text text-anchor="middle" x="812.9829" y="-487.3" font-family="Times,serif" font-size="14.00" fill="#000000">kind</text>
<polyline fill="none" stroke="#000000" points="777.769,-480.5 848.1968,-480.5 "/>
<text text-anchor="middle" x="812.9829" y="-465.3" font-family="Times,serif" font-size="14.00" fill="#000000">consumer</text>
<polyline fill="none" stroke="#000000" points="777.769,-458.5 848.1968,-458.5 "/>
<text text-anchor="middle" x="812.9829" y="-443.3" font-family="Times,serif" font-size="14.00" fill="#000000">producer</text>
<polyline fill="none" stroke="#000000" points="848.1968,-436.5 848.1968,-502.5 "/>
<text text-anchor="middle" x="874.0728" y="-487.3" font-family="Times,serif" font-size="14.00" fill="#000000">state</text>
<polyline fill="none" stroke="#000000" points="848.1968,-480.5 899.9487,-480.5 "/>
<text text-anchor="middle" x="874.0728" y="-465.3" font-family="Times,serif" font-size="14.00" fill="#000000">awake</text>
<polyline fill="none" stroke="#000000" points="848.1968,-458.5 899.9487,-458.5 "/>
<text text-anchor="middle" x="874.0728" y="-443.3" font-family="Times,serif" font-size="14.00" fill="#000000">awake</text>
<polyline fill="none" stroke="#000000" points="694.4517,-436.5 899.9487,-436.5 "/>
<text text-anchor="middle" x="756.2173" y="-421.3" font-family="Times,serif" font-size="14.00" fill="#000000">occupied</text>
<polyline fill="none" stroke="#000000" points="817.9829,-414.5 817.9829,-436.5 "/>
<text text-anchor="middle" x="858.4829" y="-421.3" font-family="Times,serif" font-size="14.00" fill="#000000">0</text>
<polyline fill="none" stroke="#000000" points="694.4517,-414.5 899.9487,-414.5 "/>
<text text-anchor="middle" x="751.7793" y="-399.3" font-family="Times,serif" font-size="14.00" fill="#000000">put&#45;at</text>
<polyline fill="none" stroke="#000000" points="809.1069,-392.5 809.1069,-414.5 "/>
<text text-anchor="middle" x="854.1069" y="-399.3" font-family="Times,serif" font-size="14.00" fill="#000000">0</text>
<polyline fill="none" stroke="#000000" points="694.4517,-392.5 899.9487,-392.5 "/>
<text text-anchor="middle" x="753.4932" y="-377.3" font-family="Times,serif" font-size="14.00" fill="#000000">take&#45;at</text>
<polyline fill="none" stroke="#000000" points="812.5347,-370.5 812.5347,-392.5 "/>
<text text-anchor="middle" x="856.0347" y="-377.3" font-family="Times,serif" font-size="14.00" fill="#000000">0</text>
</g>
<!-- start&#45;&gt;27 -->
<g id="edge6" class="edge">
<title>start&#45;&gt;27</title>
<path fill="none" stroke="#000000" d="M700.9081,-370.383C690.9444,-362.4034 680.7845,-354.2667 670.7363,-346.2194"/>
<polygon fill="#000000" stroke="#000000" points="672.701,-343.3088 662.7077,-339.7896 668.3252,-348.7726 672.701,-343.3088"/>
<text text-anchor="middle" x="692.7002" y="-350.8" font-family="Times,serif" font-size="14.00" fill="#000000">0</text>
</g>
<!-- 1621 -->
<g id="node8" class="node">
<title>1621</title>
<polygon fill="none" stroke="#000000" points="926.4517,-185.5 926.4517,-339.5 1131.9487,-339.5 1131.9487,-185.5 926.4517,-185.5"/>
<text text-anchor="middle" x="981.4287" y="-324.3" font-family="Times,serif" font-size="14.00" fill="#000000">buffer</text>
<polyline fill="none" stroke="#000000" points="1036.4058,-317.5 1036.4058,-339.5 "/>
<text text-anchor="middle" x="1084.1265" y="-324.3" font-family="Times,serif" font-size="14.00" fill="#000000">full</text>
<polyline fill="none" stroke="#000000" points="926.4517,-317.5 1131.9487,-317.5 "/>
<text text-anchor="middle" x="954.6655" y="-280.3" font-family="Times,serif" font-size="14.00" fill="#000000">threads</text>
<polyline fill="none" stroke="#000000" points="982.8794,-251.5 982.8794,-317.5 "/>
<text text-anchor="middle" x="996.3242" y="-302.3" font-family="Times,serif" font-size="14.00" fill="#000000">id</text>
<polyline fill="none" stroke="#000000" points="982.8794,-295.5 1009.769,-295.5 "/>
<text text-anchor="middle" x="996.3242" y="-280.3" font-family="Times,serif" font-size="14.00" fill="#000000">0</text>
<polyline fill="none" stroke="#000000" points="982.8794,-273.5 1009.769,-273.5 "/>
<text text-anchor="middle" x="996.3242" y="-258.3" font-family="Times,serif" font-size="14.00" fill="#000000">1</text>
<polyline fill="none" stroke="#000000" points="1009.769,-251.5 1009.769,-317.5 "/>
<text text-anchor="middle" x="1044.9829" y="-302.3" font-family="Times,serif" font-size="14.00" fill="#000000">kind</text>
<polyline fill="none" stroke="#000000" points="1009.769,-295.5 1080.1968,-295.5 "/>
<text text-anchor="middle" x="1044.9829" y="-280.3" font-family="Times,serif" font-size="14.00" fill="#000000">consumer</text>
<polyline fill="none" stroke="#000000" points="1009.769,-273.5 1080.1968,-273.5 "/>
<text text-anchor="middle" x="1044.9829" y="-258.3" font-family="Times,serif" font-size="14.00" fill="#000000">producer</text>
<polyline fill="none" stroke="#000000" points="1080.1968,-251.5 1080.1968,-317.5 "/>
<text text-anchor="middle" x="1106.0728" y="-302.3" font-family="Times,serif" font-size="14.00" fill="#000000">state</text>
<polyline fill="none" stroke="#000000" points="1080.1968,-295.5 1131.9487,-295.5 "/>
<text text-anchor="middle" x="1106.0728" y="-280.3" font-family="Times,serif" font-size="14.00" fill="#000000">awake</text>
<polyline fill="none" stroke="#000000" points="1080.1968,-273.5 1131.9487,-273.5 "/>
<text text-anchor="middle" x="1106.0728" y="-258.3" font-family="Times,serif" font-size="14.00" fill="#000000">awake</text>
<polyline fill="none" stroke="#000000" points="926.4517,-251.5 1131.9487,-251.5 "/>
<text text-anchor="middle" x="988.2173" y="-236.3" font-family="Times,serif" font-size="14.00" fill="#000000">occupied</text>
<polyline fill="none" stroke="#000000" points="1049.9829,-229.5 1049.9829,-251.5 "/>
<text text-anchor="middle" x="1090.4829" y="-236.3" font-family="Times,serif" font-size="14.00" fill="#000000">1</text>
<polyline fill="none" stroke="#000000" points="926.4517,-229.5 1131.9487,-229.5 "/>
<text text-anchor="middle" x="983.7793" y="-214.3" font-family="Times,serif" font-size="14.00" fill="#000000">put&#45;at</text>
<polyline fill="none" stroke="#000000" points="1041.1069,-207.5 1041.1069,-229.5 "/>
<text text-anchor="middle" x="1086.1069" y="-214.3" font-family="Times,serif" font-size="14.00" fill="#000000">1</text>
<polyline fill="none" stroke="#000000" points="926.4517,-207.5 1131.9487,-207.5 "/>
<text text-anchor="middle" x="985.4932" y="-192.3" font-family="Times,serif" font-size="14.00" fill="#000000">take&#45;at</text>
<polyline fill="none" stroke="#000000" points="1044.5347,-185.5 1044.5347,-207.5 "/>
<text text-anchor="middle" x="1088.0347" y="-192.3" font-family="Times,serif" font-size="14.00" fill="#000000">0</text>
</g>
<!-- start&#45;&gt;1621 -->
<g id="edge5" class="edge">
<title>start&#45;&gt;1621</title>
<path fill="none" stroke="#000000" d="M893.9091,-370.383C903.9159,-362.4034 914.1198,-354.2667 924.2115,-346.2194"/>
<polygon fill="#000000" stroke="#000000" points="926.6385,-348.7607 932.2749,-339.7896 922.2742,-343.2877 926.6385,-348.7607"/>
<text text-anchor="middle" x="923.7002" y="-350.8" font-family="Times,serif" font-size="14.00" fill="#000000">1</text>
</g>
<!-- 1621&#45;&gt;1625 -->
<g id="edge8" class="edge">
<title>1621&#45;&gt;1625</title>
<path fill="none" stroke="#000000" d="M1029.2002,-185.383C1029.2002,-178.5885 1029.2002,-171.6801 1029.2002,-164.8099"/>
<polygon fill="#000000" stroke="#000000" points="1032.7003,-164.7895 1029.2002,-154.7896 1025.7003,-164.7896 1032.7003,-164.7895"/>
<text text-anchor="middle" x="1032.7002" y="-165.8" font-family="Times,serif" font-size="14.00" fill="#000000">0</text>
</g>
<!-- 1620 -->
<g id="node9" class="node">
<title>1620</title>
<polygon fill="none" stroke="#000000" points="1150,-.5 1150,-154.5 1366.4004,-154.5 1366.4004,-.5 1150,-.5"/>
<text text-anchor="middle" x="1207.4771" y="-139.3" font-family="Times,serif" font-size="14.00" fill="#000000">buffer</text>
<polyline fill="none" stroke="#000000" points="1264.9541,-132.5 1264.9541,-154.5 "/>
<text text-anchor="middle" x="1315.6748" y="-139.3" font-family="Times,serif" font-size="14.00" fill="#000000">full</text>
<polyline fill="none" stroke="#000000" points="1150,-132.5 1366.4004,-132.5 "/>
<text text-anchor="middle" x="1178.2139" y="-95.3" font-family="Times,serif" font-size="14.00" fill="#000000">threads</text>
<polyline fill="none" stroke="#000000" points="1206.4277,-66.5 1206.4277,-132.5 "/>
<text text-anchor="middle" x="1219.8726" y="-117.3" font-family="Times,serif" font-size="14.00" fill="#000000">id</text>
<polyline fill="none" stroke="#000000" points="1206.4277,-110.5 1233.3174,-110.5 "/>
<text text-anchor="middle" x="1219.8726" y="-95.3" font-family="Times,serif" font-size="14.00" fill="#000000">0</text>
<polyline fill="none" stroke="#000000" points="1206.4277,-88.5 1233.3174,-88.5 "/>
<text text-anchor="middle" x="1219.8726" y="-73.3" font-family="Times,serif" font-size="14.00" fill="#000000">1</text>
<polyline fill="none" stroke="#000000" points="1233.3174,-66.5 1233.3174,-132.5 "/>
<text text-anchor="middle" x="1268.5313" y="-117.3" font-family="Times,serif" font-size="14.00" fill="#000000">kind</text>
<polyline fill="none" stroke="#000000" points="1233.3174,-110.5 1303.7451,-110.5 "/>
<text text-anchor="middle" x="1268.5313" y="-95.3" font-family="Times,serif" font-size="14.00" fill="#000000">consumer</text>
<polyline fill="none" stroke="#000000" points="1233.3174,-88.5 1303.7451,-88.5 "/>
<text text-anchor="middle" x="1268.5313" y="-73.3" font-family="Times,serif" font-size="14.00" fill="#000000">producer</text>
<polyline fill="none" stroke="#000000" points="1303.7451,-66.5 1303.7451,-132.5 "/>
<text text-anchor="middle" x="1335.0728" y="-117.3" font-family="Times,serif" font-size="14.00" fill="#000000">state</text>
<polyline fill="none" stroke="#000000" points="1303.7451,-110.5 1366.4004,-110.5 "/>
<text text-anchor="middle" x="1335.0728" y="-95.3" font-family="Times,serif" font-size="14.00" fill="#000000">awake</text>
<polyline fill="none" stroke="#000000" points="1303.7451,-88.5 1366.4004,-88.5 "/>
<text text-anchor="middle" x="1335.0728" y="-73.3" font-family="Times,serif" font-size="14.00" fill="#000000">sleeping</text>
<polyline fill="none" stroke="#000000" points="1150,-66.5 1366.4004,-66.5 "/>
<text text-anchor="middle" x="1214.7656" y="-51.3" font-family="Times,serif" font-size="14.00" fill="#000000">occupied</text>
<polyline fill="none" stroke="#000000" points="1279.5313,-44.5 1279.5313,-66.5 "/>
<text text-anchor="middle" x="1322.5313" y="-51.3" font-family="Times,serif" font-size="14.00" fill="#000000">1</text>
<polyline fill="none" stroke="#000000" points="1150,-44.5 1366.4004,-44.5 "/>
<text text-anchor="middle" x="1210.3276" y="-29.3" font-family="Times,serif" font-size="14.00" fill="#000000">put&#45;at</text>
<polyline fill="none" stroke="#000000" points="1270.6553,-22.5 1270.6553,-44.5 "/>
<text text-anchor="middle" x="1318.1553" y="-29.3" font-family="Times,serif" font-size="14.00" fill="#000000">1</text>
<polyline fill="none" stroke="#000000" points="1150,-22.5 1366.4004,-22.5 "/>
<text text-anchor="middle" x="1211.5415" y="-7.3" font-family="Times,serif" font-size="14.00" fill="#000000">take&#45;at</text>
<polyline fill="none" stroke="#000000" points="1273.083,-.5 1273.083,-22.5 "/>
<text text-anchor="middle" x="1319.583" y="-7.3" font-family="Times,serif" font-size="14.00" fill="#000000">0</text>
</g>
<!-- 1621&#45;&gt;1620 -->
<g id="edge7" class="edge">
<title>1621&#45;&gt;1620</title>
<path fill="none" stroke="#000000" d="M1124.6586,-185.383C1134.536,-177.4034 1144.6079,-169.2667 1154.5691,-161.2194"/>
<polygon fill="#000000" stroke="#000000" points="1156.9489,-163.7963 1162.5282,-154.7896 1152.55,-158.3512 1156.9489,-163.7963"/>
<text text-anchor="middle" x="1154.7002" y="-165.8" font-family="Times,serif" font-size="14.00" fill="#000000">1</text>
</g>
</g>
</svg>
